<svg width="958" height="550" viewBox="0 0 958 550" fill="none" xmlns="http://www.w3.org/2000/svg">
<rect x="209" y="150" width="25" height="25" fill="#B5A79A"/>
<rect x="234" y="150" width="25" height="25" fill="#B5A79A"/>
<rect x="259" y="150" width="25" height="25" fill="#B5A79A"/>
<rect x="284" y="150" width="25" height="25" fill="#B5A79A"/>
<rect x="309" y="150" width="25" height="25" fill="#B5A79A"/>
<rect x="334" y="150" width="25" height="25" fill="#B5A79A"/>
<rect x="359" y="150" width="25" height="25" fill="#B5A79A"/>
<rect x="384" y="150" width="25" height="25" fill="#B5A79A"/>
<rect x="409" y="150" width="25" height="25" fill="#B5A79A"/>
<rect x="434" y="150" width="25" height="25" fill="#B5A79A"/>
<rect x="459" y="150" width="25" height="25" fill="#B5A79A"/>
<rect x="484" y="150" width="25" height="25" fill="#B5A79A"/>
<rect x="509" y="150" width="25" height="25" fill="#B5A79A"/>
<rect x="534" y="150" width="25" height="25" fill="#B5A79A"/>
<rect x="559" y="150" width="25" height="25" fill="#B5A79A"/>
<rect x="584" y="150" width="25" height="25" fill="#B5A79A"/>
<rect x="609" y="150" width="25" height="25" fill="#B5A79A"/>
<rect x="634" y="150" width="25" height="25" fill="#B5A79A"/>
<rect x="659" y="150" width="25" height="25" fill="#B5A79A"/>
<rect x="684" y="150" width="25" height="25" fill="#B5A79A"/>
<rect x="709" y="150" width="25" height="25" fill="#B5A79A"/>
<rect x="734" y="150" width="25" height="25" fill="#B5A79A"/>
<rect x="171" width="25" height="25" fill="#4A2607"/>
<rect x="196" y="25" width="25" height="25" fill="#4A2607"/>
<rect x="184" y="75" width="25" height="25" fill="#B5A79A"/>
<rect x="209" y="75" width="25" height="25" fill="#B5A79A"/>
<rect x="234" y="75" width="25" height="25" fill="#B5A79A"/>
<rect x="259" y="75" width="25" height="25" fill="#B5A79A"/>
<rect x="284" y="75" width="25" height="25" fill="#B5A79A"/>
<rect x="309" y="75" width="25" height="25" fill="#B5A79A"/>
<rect x="334" y="75" width="25" height="25" fill="#B5A79A"/>
<rect x="346" y="25" width="25" height="25" fill="#B5A79A"/>
<rect x="371" y="25" width="25" height="25" fill="#B5A79A"/>
<rect x="321" y="50" width="25" height="25" fill="#B5A79A"/>
<rect x="346" y="50" width="25" height="25" fill="#B5A79A"/>
<rect x="371" y="50" width="25" height="25" fill="#B5A79A"/>
<rect x="396" y="50" width="25" height="25" fill="#B5A79A"/>
<rect x="359" y="75" width="25" height="25" fill="#B5A79A"/>
<rect x="384" y="75" width="25" height="25" fill="#B5A79A"/>
<rect x="409" y="75" width="25" height="25" fill="#B5A79A"/>
<rect x="434" y="75" width="25" height="25" fill="#B5A79A"/>
<rect x="822" y="221" width="27" height="29" fill="#B5A79A"/>
<rect x="822" y="234" width="27" height="29" fill="#B5A79A"/>
<rect x="849" y="223" width="27" height="29" fill="#B5A79A"/>
<rect x="876" y="212" width="27" height="29" fill="#B5A79A"/>
<rect x="844" y="180" width="27" height="29" fill="#B5A79A"/>
<rect x="847" y="204" width="29" height="29" fill="#B5A79A"/>
<rect x="871" y="175" width="29" height="29" fill="#B5A79A"/>
<rect x="872" y="184" width="29" height="29" fill="#B5A79A"/>
<rect x="878" y="150" width="37" height="42" fill="#B5A79A"/>
<rect x="459" y="75" width="25" height="25" fill="#B5A79A"/>
<rect x="484" y="75" width="25" height="25" fill="#B5A79A"/>
<rect x="471" y="61" width="25" height="25" fill="#B5A79A"/>
<rect x="571" y="62" width="25" height="25" fill="#B5A79A"/>
<rect x="509" y="75" width="25" height="25" fill="#B5A79A"/>
<rect x="534" y="75" width="25" height="25" fill="#B5A79A"/>
<rect x="559" y="75" width="25" height="25" fill="#B5A79A"/>
<rect x="584" y="75" width="25" height="25" fill="#B5A79A"/>
<rect x="221" y="50" width="25" height="25" fill="#4A2607"/>
<rect x="262" y="75" width="25" height="25" fill="#5C534A"/>
<rect x="296" y="75" width="25" height="25" fill="#5C534A"/>
<rect x="496" y="62" width="25" height="25" fill="#5C534A"/>
<rect x="521" y="62" width="25" height="25" fill="#5C534A"/>
<rect x="546" y="62" width="25" height="25" fill="#5C534A"/>
<rect x="596" y="75" width="25" height="25" fill="#5C534A"/>
<rect x="209" y="150" width="25" height="25" fill="#B5A79A"/>
<rect x="621" y="74" width="25" height="25" fill="#5C534A"/>
<rect x="646" y="88" width="25" height="25" fill="#5C534A"/>
<rect x="179" y="125" width="25" height="25" fill="#B5A79A"/>
<rect x="199" y="125" width="25" height="25" fill="#B5A79A"/>
<rect x="219" y="125" width="25" height="25" fill="#B5A79A"/>
<rect x="239" y="125" width="25" height="25" fill="#B5A79A"/>
<rect x="259" y="125" width="25" height="25" fill="#B5A79A"/>
<rect x="279" y="125" width="25" height="25" fill="#B5A79A"/>
<rect x="299" y="125" width="25" height="25" fill="#B5A79A"/>
<rect x="319" y="125" width="25" height="25" fill="#B5A79A"/>
<rect x="339" y="125" width="25" height="25" fill="#B5A79A"/>
<rect x="359" y="125" width="25" height="25" fill="#B5A79A"/>
<rect x="379" y="125" width="25" height="25" fill="#B5A79A"/>
<rect x="399" y="125" width="25" height="25" fill="#B5A79A"/>
<rect x="419" y="125" width="25" height="25" fill="#B5A79A"/>
<rect x="439" y="125" width="25" height="25" fill="#B5A79A"/>
<rect x="459" y="125" width="25" height="25" fill="#B5A79A"/>
<rect x="479" y="125" width="25" height="25" fill="#B5A79A"/>
<rect x="499" y="125" width="25" height="25" fill="#B5A79A"/>
<rect x="519" y="125" width="25" height="25" fill="#B5A79A"/>
<rect x="539" y="125" width="25" height="25" fill="#B5A79A"/>
<rect x="559" y="125" width="25" height="25" fill="#B5A79A"/>
<rect x="579" y="125" width="25" height="25" fill="#B5A79A"/>
<rect x="599" y="125" width="25" height="25" fill="#B5A79A"/>
<rect x="619" y="125" width="25" height="25" fill="#B5A79A"/>
<rect x="639" y="125" width="25" height="25" fill="#B5A79A"/>
<rect x="659" y="125" width="25" height="25" fill="#B5A79A"/>
<rect x="679" y="125" width="25" height="25" fill="#B5A79A"/>
<rect x="699" y="125" width="25" height="25" fill="#B5A79A"/>
<rect x="719" y="125" width="25" height="25" fill="#B5A79A"/>
<rect x="696" y="114" width="25" height="25" fill="#B5A79A"/>
<rect x="868.012" y="155.162" width="59.579" height="25" transform="rotate(38.0411 868.012 155.162)" fill="#5C534A"/>
<rect x="838.406" y="202" width="59.579" height="25" transform="rotate(38.0411 838.406 202)" fill="#5C534A"/>
<rect x="799" y="240" width="59.579" height="25" transform="rotate(90 799 240)" fill="#5C534A"/>
<rect x="621" y="88" width="25" height="25" fill="#5C534A"/>
<rect x="596" y="88" width="25" height="25" fill="#5C534A"/>
<rect x="521" y="74" width="25" height="25" fill="#5C534A"/>
<rect x="546" y="74" width="25" height="25" fill="#5C534A"/>
<rect x="496" y="74" width="25" height="25" fill="#5C534A"/>
<rect x="246" y="50" width="25" height="25" fill="#4A2607"/>
<rect x="271" y="50" width="25" height="25" fill="#4A2607"/>
<rect x="296" y="50" width="25" height="25" fill="#4A2607"/>
<rect x="346" y="125" width="25" height="25" fill="#4A2607"/>
<rect x="183" y="125" width="25" height="25" fill="#4A2607"/>
<rect x="264" y="125" width="25" height="25" fill="#4A2607"/>
<rect x="246" y="150" width="25" height="25" fill="#4A2607"/>
<rect x="289" y="150" width="25" height="25" fill="#4A2607"/>
<rect x="321" y="25" width="25" height="25" fill="#4A2607"/>
<rect x="346" width="25" height="25" fill="#4A2607"/>
<rect x="371" width="25" height="25" fill="#4A2607"/>
<rect x="396" y="25" width="25" height="25" fill="#4A2607"/>
<rect x="421" y="50" width="25" height="25" fill="#4A2607"/>
<rect x="446" y="50" width="25" height="25" fill="#4A2607"/>
<rect x="471" y="37" width="25" height="25" fill="#4A2607"/>
<rect x="496" y="37" width="25" height="25" fill="#4A2607"/>
<rect x="521" y="37" width="25" height="25" fill="#4A2607"/>
<rect x="546" y="37" width="25" height="25" fill="#4A2607"/>
<rect x="571" y="37" width="25" height="25" fill="#4A2607"/>
<rect x="209" y="150" width="25" height="25" fill="#B5A79A"/>
<rect x="596" y="50" width="25" height="25" fill="#4A2607"/>
<rect x="621" y="50" width="25" height="25" fill="#4A2607"/>
<rect x="646" y="63" width="25" height="25" fill="#4A2607"/>
<rect x="209" y="150" width="25" height="25" fill="#B5A79A"/>
<rect x="671" y="76" width="25" height="25" fill="#4A2607"/>
<rect x="696" y="89" width="25" height="25" fill="#4A2607"/>
<rect x="721" y="102" width="25" height="25" fill="#4A2607"/>
<rect x="734" y="127" width="25" height="25" fill="#4A2607"/>
<rect x="228" y="75" width="25" height="25" fill="#5C534A"/>
<rect x="747" y="150" width="25" height="25" fill="#4A2607"/>
<rect x="759" y="175" width="25" height="25" fill="#4A2607"/>
<rect x="773" y="196" width="25" height="25" fill="#4A2607"/>
<rect x="146" width="25" height="25" fill="#4A2607"/>
<rect x="121" y="25" width="25" height="25" fill="#4A2607"/>
<rect x="146" y="25" width="25" height="25" fill="#B5A79A"/>
<rect x="171" y="25" width="25" height="25" fill="#B5A79A"/>
<rect x="134" y="50" width="25" height="25" fill="#B5A79A"/>
<rect x="159" y="50" width="25" height="25" fill="#B5A79A"/>
<rect x="184" y="50" width="25" height="25" fill="#B5A79A"/>
<rect x="197" y="50" width="25" height="25" fill="#B5A79A"/>
<rect x="134" y="75" width="25" height="25" fill="#B5A79A"/>
<rect x="134" y="100" width="25" height="25" fill="#B5A79A"/>
<rect x="159" y="100" width="25" height="25" fill="#B5A79A"/>
<rect x="184" y="100" width="25" height="25" fill="#B5A79A"/>
<rect x="209" y="100" width="25" height="25" fill="#B5A79A"/>
<rect x="234" y="100" width="25" height="25" fill="#B5A79A"/>
<rect x="259" y="100" width="25" height="25" fill="#B5A79A"/>
<rect x="284" y="100" width="25" height="25" fill="#B5A79A"/>
<rect x="309" y="100" width="25" height="25" fill="#B5A79A"/>
<rect x="334" y="100" width="25" height="25" fill="#B5A79A"/>
<rect x="359" y="100" width="25" height="25" fill="#B5A79A"/>
<rect x="384" y="100" width="25" height="25" fill="#B5A79A"/>
<rect x="409" y="100" width="25" height="25" fill="#B5A79A"/>
<rect x="434" y="100" width="25" height="25" fill="#B5A79A"/>
<rect x="459" y="100" width="25" height="25" fill="#B5A79A"/>
<rect x="484" y="100" width="25" height="25" fill="#B5A79A"/>
<rect x="509" y="100" width="25" height="25" fill="#B5A79A"/>
<rect x="534" y="100" width="25" height="25" fill="#B5A79A"/>
<rect x="559" y="100" width="25" height="25" fill="#B5A79A"/>
<rect x="584" y="100" width="25" height="25" fill="#B5A79A"/>
<rect x="609" y="100" width="25" height="25" fill="#B5A79A"/>
<rect x="634" y="100" width="25" height="25" fill="#B5A79A"/>
<rect x="209" y="150" width="25" height="25" fill="#B5A79A"/>
<rect x="659" y="100" width="25" height="25" fill="#B5A79A"/>
<rect x="684" y="100" width="25" height="25" fill="#B5A79A"/>
<rect x="109" y="125" width="25" height="25" fill="#B5A79A"/>
<rect x="109" y="150" width="25" height="25" fill="#B5A79A"/>
<rect x="109" y="175" width="25" height="25" fill="#B5A79A"/>
<rect x="97" y="175" width="25" height="25" fill="#B5A79A"/>
<rect x="97" y="200" width="25" height="25" fill="#B5A79A"/>
<rect x="97" y="225" width="25" height="25" fill="#B5A79A"/>
<rect x="97" y="250" width="25" height="25" fill="#B5A79A"/>
<rect x="97" y="275" width="25" height="25" fill="#B5A79A"/>
<rect x="97" y="300" width="25" height="25" fill="#B5A79A"/>
<rect x="97" y="325" width="25" height="25" fill="#B5A79A"/>
<rect x="96" y="350" width="25" height="25" fill="#B5A79A"/>
<rect x="97" y="375" width="25" height="25" fill="#B5A79A"/>
<rect x="109" y="200" width="25" height="25" fill="#B5A79A"/>
<rect x="109" y="225" width="25" height="25" fill="#B5A79A"/>
<rect x="109" y="250" width="25" height="25" fill="#B5A79A"/>
<rect x="109" y="275" width="25" height="25" fill="#B5A79A"/>
<rect x="159" y="125" width="25" height="25" fill="#B5A79A"/>
<rect x="73" y="275" width="25" height="25" fill="#B5A79A"/>
<rect x="84" y="300" width="25" height="25" fill="#B5A79A"/>
<rect x="83" y="325" width="25" height="25" fill="#B5A79A"/>
<rect x="109" y="300" width="25" height="25" fill="#B5A79A"/>
<rect x="109" y="325" width="25" height="25" fill="#B5A79A"/>
<rect x="109" y="350" width="25" height="25" fill="#B5A79A"/>
<rect x="109" y="375" width="25" height="25" fill="#B5A79A"/>
<rect x="109" y="400" width="25" height="25" fill="#B5A79A"/>
<rect x="109" y="425" width="25" height="25" fill="#B5A79A"/>
<rect x="134" y="125" width="25" height="25" fill="#B5A79A"/>
<rect x="134" y="150" width="25" height="25" fill="#B5A79A"/>
<rect x="159" y="150" width="25" height="25" fill="#B5A79A"/>
<rect x="159" y="175" width="25" height="25" fill="#B5A79A"/>
<rect x="184" y="175" width="25" height="25" fill="#B5A79A"/>
<rect x="209" y="175" width="25" height="25" fill="#B5A79A"/>
<rect x="234" y="175" width="25" height="25" fill="#B5A79A"/>
<rect x="259" y="175" width="25" height="25" fill="#B5A79A"/>
<rect x="284" y="175" width="25" height="25" fill="#B5A79A"/>
<rect x="309" y="175" width="25" height="25" fill="#B5A79A"/>
<rect x="334" y="175" width="25" height="25" fill="#B5A79A"/>
<rect x="359" y="175" width="25" height="25" fill="#B5A79A"/>
<rect x="384" y="175" width="25" height="25" fill="#B5A79A"/>
<rect x="409" y="175" width="25" height="25" fill="#B5A79A"/>
<rect x="434" y="175" width="25" height="25" fill="#B5A79A"/>
<rect x="459" y="175" width="25" height="25" fill="#B5A79A"/>
<rect x="484" y="175" width="25" height="25" fill="#B5A79A"/>
<rect x="509" y="175" width="25" height="25" fill="#B5A79A"/>
<rect x="534" y="175" width="25" height="25" fill="#B5A79A"/>
<rect x="559" y="175" width="25" height="25" fill="#B5A79A"/>
<rect x="584" y="175" width="25" height="25" fill="#B5A79A"/>
<rect x="609" y="175" width="25" height="25" fill="#B5A79A"/>
<rect x="634" y="175" width="25" height="25" fill="#B5A79A"/>
<rect x="659" y="175" width="25" height="25" fill="#B5A79A"/>
<rect x="684" y="175" width="25" height="25" fill="#B5A79A"/>
<rect x="709" y="175" width="25" height="25" fill="#B5A79A"/>
<rect x="734" y="175" width="25" height="25" fill="#B5A79A"/>
<rect x="159" y="200" width="25" height="25" fill="#B5A79A"/>
<rect x="183" y="200" width="25" height="25" fill="#B5A79A"/>
<rect x="207" y="200" width="25" height="25" fill="#B5A79A"/>
<rect x="231" y="200" width="25" height="25" fill="#B5A79A"/>
<rect x="255" y="200" width="25" height="25" fill="#B5A79A"/>
<rect x="279" y="200" width="25" height="25" fill="#B5A79A"/>
<rect x="303" y="200" width="25" height="25" fill="#B5A79A"/>
<rect x="327" y="200" width="25" height="25" fill="#B5A79A"/>
<rect x="351" y="200" width="25" height="25" fill="#B5A79A"/>
<rect x="375" y="200" width="25" height="25" fill="#B5A79A"/>
<rect x="399" y="200" width="25" height="25" fill="#B5A79A"/>
<rect x="423" y="200" width="25" height="25" fill="#B5A79A"/>
<rect x="447" y="200" width="25" height="25" fill="#B5A79A"/>
<rect x="471" y="200" width="25" height="25" fill="#B5A79A"/>
<rect x="495" y="200" width="25" height="25" fill="#B5A79A"/>
<rect x="519" y="200" width="25" height="25" fill="#B5A79A"/>
<rect x="543" y="200" width="25" height="25" fill="#B5A79A"/>
<rect x="567" y="200" width="25" height="25" fill="#B5A79A"/>
<rect x="591" y="200" width="25" height="25" fill="#B5A79A"/>
<rect x="615" y="200" width="25" height="25" fill="#B5A79A"/>
<rect x="639" y="200" width="25" height="25" fill="#B5A79A"/>
<rect x="663" y="200" width="25" height="25" fill="#B5A79A"/>
<rect x="687" y="200" width="25" height="25" fill="#B5A79A"/>
<rect x="711" y="200" width="25" height="25" fill="#B5A79A"/>
<rect x="735" y="200" width="25" height="25" fill="#B5A79A"/>
<rect x="748" y="200" width="25" height="25" fill="#B5A79A"/>
<rect x="159" y="225" width="25" height="25" fill="#B5A79A"/>
<rect x="184" y="225" width="25" height="25" fill="#B5A79A"/>
<rect x="183" y="250" width="25" height="25" fill="#B5A79A"/>
<rect x="183" y="275" width="25" height="25" fill="#B5A79A"/>
<rect x="183" y="300" width="25" height="25" fill="#B5A79A"/>
<rect x="183" y="325" width="25" height="25" fill="#B5A79A"/>
<rect x="183" y="350" width="25" height="25" fill="#B5A79A"/>
<rect x="183" y="375" width="25" height="25" fill="#B5A79A"/>
<rect x="183" y="400" width="25" height="25" fill="#B5A79A"/>
<rect x="183" y="425" width="25" height="25" fill="#B5A79A"/>
<rect x="183" y="450" width="25" height="25" fill="#B5A79A"/>
<rect x="183" y="475" width="25" height="25" fill="#B5A79A"/>
<rect x="183" y="500" width="25" height="25" fill="#B5A79A"/>
<rect x="209" y="225" width="25" height="25" fill="#B5A79A"/>
<rect x="207" y="250" width="25" height="25" fill="#B5A79A"/>
<rect x="207" y="275" width="25" height="25" fill="#B5A79A"/>
<rect x="207" y="300" width="25" height="25" fill="#B5A79A"/>
<rect x="207" y="325" width="25" height="25" fill="#B5A79A"/>
<rect x="207" y="350" width="25" height="25" fill="#B5A79A"/>
<rect x="207" y="375" width="25" height="25" fill="#B5A79A"/>
<rect x="207" y="400" width="25" height="25" fill="#B5A79A"/>
<rect x="207" y="425" width="25" height="25" fill="#B5A79A"/>
<rect x="207" y="450" width="25" height="25" fill="#B5A79A"/>
<rect x="207" y="475" width="25" height="25" fill="#B5A79A"/>
<rect x="207" y="500" width="25" height="25" fill="#B5A79A"/>
<rect x="234" y="225" width="25" height="25" fill="#B5A79A"/>
<rect x="232" y="250" width="25" height="25" fill="#B5A79A"/>
<rect x="232" y="275" width="25" height="25" fill="#B5A79A"/>
<rect x="232" y="300" width="25" height="25" fill="#B5A79A"/>
<rect x="232" y="325" width="25" height="25" fill="#B5A79A"/>
<rect x="232" y="350" width="25" height="25" fill="#B5A79A"/>
<rect x="232" y="375" width="25" height="25" fill="#B5A79A"/>
<rect x="232" y="400" width="25" height="25" fill="#B5A79A"/>
<rect x="232" y="425" width="25" height="25" fill="#B5A79A"/>
<rect x="232" y="450" width="25" height="25" fill="#B5A79A"/>
<rect x="232" y="475" width="25" height="25" fill="#B5A79A"/>
<rect x="259" y="225" width="25" height="25" fill="#B5A79A"/>
<rect x="257" y="250" width="25" height="25" fill="#B5A79A"/>
<rect x="282" y="250" width="25" height="25" fill="#B5A79A"/>
<rect x="307" y="250" width="25" height="25" fill="#B5A79A"/>
<rect x="332" y="250" width="25" height="25" fill="#B5A79A"/>
<rect x="357" y="250" width="25" height="25" fill="#B5A79A"/>
<rect x="382" y="250" width="25" height="25" fill="#B5A79A"/>
<rect x="407" y="250" width="25" height="25" fill="#B5A79A"/>
<rect x="432" y="250" width="25" height="25" fill="#B5A79A"/>
<rect x="457" y="250" width="25" height="25" fill="#B5A79A"/>
<rect x="482" y="250" width="25" height="25" fill="#B5A79A"/>
<rect x="507" y="250" width="25" height="25" fill="#B5A79A"/>
<rect x="532" y="250" width="25" height="25" fill="#B5A79A"/>
<rect x="557" y="250" width="25" height="25" fill="#B5A79A"/>
<rect x="582" y="250" width="25" height="25" fill="#B5A79A"/>
<rect x="607" y="250" width="25" height="25" fill="#B5A79A"/>
<rect x="632" y="250" width="25" height="25" fill="#B5A79A"/>
<rect x="657" y="250" width="25" height="25" fill="#B5A79A"/>
<rect x="682" y="250" width="25" height="25" fill="#B5A79A"/>
<rect x="707" y="250" width="25" height="25" fill="#B5A79A"/>
<rect x="732" y="250" width="25" height="25" fill="#B5A79A"/>
<rect x="757" y="250" width="17" height="25" fill="#B5A79A"/>
<rect x="799" y="246" width="24" height="29" fill="#B5A79A"/>
<rect x="257" y="275" width="25" height="25" fill="#B5A79A"/>
<rect x="282" y="275" width="25" height="25" fill="#B5A79A"/>
<rect x="307" y="275" width="25" height="25" fill="#B5A79A"/>
<rect x="332" y="275" width="25" height="25" fill="#B5A79A"/>
<rect x="357" y="275" width="25" height="25" fill="#B5A79A"/>
<rect x="382" y="275" width="25" height="25" fill="#B5A79A"/>
<rect x="407" y="275" width="25" height="25" fill="#B5A79A"/>
<rect x="432" y="275" width="25" height="25" fill="#B5A79A"/>
<rect x="457" y="275" width="25" height="25" fill="#B5A79A"/>
<rect x="482" y="275" width="25" height="25" fill="#B5A79A"/>
<rect x="507" y="275" width="25" height="25" fill="#B5A79A"/>
<rect x="532" y="275" width="25" height="25" fill="#B5A79A"/>
<rect x="557" y="275" width="25" height="25" fill="#B5A79A"/>
<rect x="582" y="275" width="25" height="25" fill="#B5A79A"/>
<rect x="607" y="275" width="25" height="25" fill="#B5A79A"/>
<rect x="632" y="275" width="25" height="25" fill="#B5A79A"/>
<rect x="657" y="275" width="25" height="25" fill="#B5A79A"/>
<rect x="682" y="275" width="25" height="25" fill="#B5A79A"/>
<rect x="707" y="275" width="25" height="25" fill="#B5A79A"/>
<rect x="732" y="275" width="25" height="25" fill="#B5A79A"/>
<rect x="757" y="275" width="17" height="25" fill="#B5A79A"/>
<rect x="257" y="300" width="25" height="25" fill="#B5A79A"/>
<rect x="282" y="300" width="25" height="25" fill="#B5A79A"/>
<rect x="282" y="325" width="25" height="25" fill="#B5A79A"/>
<rect x="307" y="325" width="25" height="25" fill="#B5A79A"/>
<rect x="332" y="325" width="25" height="25" fill="#B5A79A"/>
<rect x="332" y="350" width="25" height="25" fill="#B5A79A"/>
<rect x="357" y="350" width="25" height="25" fill="#B5A79A"/>
<rect x="382" y="350" width="25" height="25" fill="#B5A79A"/>
<rect x="407" y="350" width="25" height="25" fill="#B5A79A"/>
<rect x="432" y="350" width="25" height="25" fill="#B5A79A"/>
<rect x="457" y="350" width="25" height="25" fill="#B5A79A"/>
<rect x="482" y="350" width="25" height="25" fill="#B5A79A"/>
<rect x="507" y="350" width="25" height="25" fill="#B5A79A"/>
<rect x="532" y="350" width="25" height="25" fill="#B5A79A"/>
<rect x="557" y="350" width="25" height="25" fill="#B5A79A"/>
<rect x="582" y="350" width="25" height="25" fill="#B5A79A"/>
<rect x="607" y="350" width="25" height="25" fill="#B5A79A"/>
<rect x="632" y="350" width="25" height="25" fill="#B5A79A"/>
<rect x="657" y="350" width="25" height="25" fill="#B5A79A"/>
<rect x="682" y="350" width="25" height="25" fill="#B5A79A"/>
<rect x="707" y="350" width="25" height="25" fill="#B5A79A"/>
<rect x="732" y="350" width="25" height="25" fill="#B5A79A"/>
<rect x="757" y="350" width="25" height="25" fill="#B5A79A"/>
<rect x="332" y="375" width="25" height="25" fill="#B5A79A"/>
<rect x="357" y="375" width="25" height="25" fill="#B5A79A"/>
<rect x="382" y="375" width="25" height="25" fill="#B5A79A"/>
<rect x="407" y="375" width="25" height="25" fill="#B5A79A"/>
<rect x="432" y="375" width="25" height="25" fill="#B5A79A"/>
<rect x="457" y="375" width="25" height="25" fill="#B5A79A"/>
<rect x="482" y="375" width="25" height="25" fill="#B5A79A"/>
<rect x="507" y="375" width="25" height="25" fill="#B5A79A"/>
<rect x="532" y="375" width="25" height="25" fill="#B5A79A"/>
<rect x="557" y="375" width="25" height="25" fill="#B5A79A"/>
<rect x="582" y="375" width="25" height="25" fill="#B5A79A"/>
<rect x="607" y="375" width="25" height="25" fill="#B5A79A"/>
<rect x="632" y="375" width="25" height="25" fill="#B5A79A"/>
<rect x="657" y="375" width="25" height="25" fill="#B5A79A"/>
<rect x="682" y="375" width="25" height="25" fill="#B5A79A"/>
<rect x="707" y="375" width="25" height="25" fill="#B5A79A"/>
<rect x="732" y="375" width="25" height="25" fill="#B5A79A"/>
<rect x="754" y="373" width="25" height="25" fill="#B5A79A"/>
<rect x="332" y="400" width="25" height="25" fill="#B5A79A"/>
<rect x="357" y="400" width="25" height="25" fill="#B5A79A"/>
<rect x="382" y="400" width="25" height="25" fill="#B5A79A"/>
<rect x="407" y="400" width="25" height="25" fill="#B5A79A"/>
<rect x="432" y="400" width="25" height="25" fill="#B5A79A"/>
<rect x="457" y="400" width="25" height="25" fill="#B5A79A"/>
<rect x="482" y="400" width="25" height="25" fill="#B5A79A"/>
<rect x="507" y="400" width="25" height="25" fill="#B5A79A"/>
<rect x="532" y="400" width="25" height="25" fill="#B5A79A"/>
<rect x="557" y="400" width="25" height="25" fill="#B5A79A"/>
<rect x="582" y="400" width="25" height="25" fill="#B5A79A"/>
<rect x="607" y="400" width="25" height="25" fill="#B5A79A"/>
<rect x="632" y="400" width="25" height="25" fill="#B5A79A"/>
<rect x="657" y="400" width="25" height="25" fill="#B5A79A"/>
<rect x="682" y="400" width="25" height="25" fill="#B5A79A"/>
<rect x="707" y="400" width="25" height="25" fill="#B5A79A"/>
<rect x="732" y="400" width="25" height="25" fill="#B5A79A"/>
<rect x="332" y="425" width="25" height="25" fill="#B5A79A"/>
<rect x="357" y="424" width="25" height="25" fill="#B5A79A"/>
<rect x="382" y="424" width="25" height="25" fill="#B5A79A"/>
<rect x="407" y="424" width="25" height="25" fill="#B5A79A"/>
<rect x="432" y="424" width="25" height="25" fill="#B5A79A"/>
<rect x="457" y="424" width="25" height="25" fill="#B5A79A"/>
<rect x="482" y="424" width="25" height="25" fill="#B5A79A"/>
<rect x="507" y="424" width="25" height="25" fill="#B5A79A"/>
<rect x="532" y="424" width="25" height="25" fill="#B5A79A"/>
<rect x="557" y="424" width="25" height="25" fill="#B5A79A"/>
<rect x="582" y="424" width="25" height="25" fill="#B5A79A"/>
<rect x="607" y="424" width="25" height="25" fill="#B5A79A"/>
<rect x="632" y="424" width="25" height="25" fill="#B5A79A"/>
<rect x="657" y="424" width="25" height="25" fill="#B5A79A"/>
<rect x="682" y="424" width="25" height="25" fill="#B5A79A"/>
<rect x="707" y="424" width="25" height="25" fill="#B5A79A"/>
<rect x="732" y="424" width="25" height="25" fill="#B5A79A"/>
<rect x="332" y="450" width="25" height="25" fill="#B5A79A"/>
<rect x="357" y="449" width="25" height="25" fill="#B5A79A"/>
<rect x="382" y="449" width="25" height="25" fill="#B5A79A"/>
<rect x="407" y="449" width="25" height="25" fill="#B5A79A"/>
<rect x="432" y="449" width="25" height="25" fill="#B5A79A"/>
<rect x="457" y="449" width="25" height="25" fill="#B5A79A"/>
<rect x="482" y="449" width="25" height="25" fill="#B5A79A"/>
<rect x="507" y="449" width="25" height="25" fill="#B5A79A"/>
<rect x="532" y="449" width="25" height="25" fill="#B5A79A"/>
<rect x="557" y="449" width="25" height="25" fill="#B5A79A"/>
<rect x="582" y="449" width="25" height="25" fill="#B5A79A"/>
<rect x="607" y="449" width="25" height="25" fill="#B5A79A"/>
<rect x="632" y="449" width="25" height="25" fill="#B5A79A"/>
<rect x="657" y="449" width="25" height="25" fill="#B5A79A"/>
<rect x="682" y="449" width="25" height="25" fill="#B5A79A"/>
<rect x="707" y="448" width="27" height="27" fill="#B5A79A"/>
<rect x="332" y="475" width="25" height="25" fill="#B5A79A"/>
<rect x="356" y="474" width="26" height="26" fill="#B5A79A"/>
<rect x="382" y="474" width="26" height="26" fill="#B5A79A"/>
<rect x="408" y="474" width="26" height="26" fill="#B5A79A"/>
<rect x="434" y="474" width="26" height="26" fill="#B5A79A"/>
<rect x="460" y="474" width="26" height="26" fill="#B5A79A"/>
<rect x="486" y="474" width="26" height="26" fill="#B5A79A"/>
<rect x="512" y="474" width="26" height="26" fill="#B5A79A"/>
<rect x="520" y="500" width="26" height="26" fill="#B5A79A"/>
<rect x="538" y="474" width="26" height="26" fill="#B5A79A"/>
<rect x="564" y="474" width="26" height="26" fill="#B5A79A"/>
<rect x="590" y="474" width="26" height="26" fill="#B5A79A"/>
<rect x="616" y="474" width="26" height="26" fill="#B5A79A"/>
<rect x="642" y="474" width="26" height="26" fill="#B5A79A"/>
<rect x="668" y="474" width="26" height="26" fill="#B5A79A"/>
<rect x="657" y="500" width="26" height="26" fill="#B5A79A"/>
<rect x="683" y="500" width="26" height="26" fill="#B5A79A"/>
<rect x="694" y="473" width="28" height="28" fill="#B5A79A"/>
<rect x="333" y="500" width="25" height="25" fill="#B5A79A"/>
<rect x="357" y="325" width="25" height="25" fill="#B5A79A"/>
<rect x="382" y="325" width="25" height="25" fill="#B5A79A"/>
<rect x="407" y="325" width="25" height="25" fill="#B5A79A"/>
<rect x="432" y="325" width="25" height="25" fill="#B5A79A"/>
<rect x="457" y="325" width="25" height="25" fill="#B5A79A"/>
<rect x="482" y="325" width="25" height="25" fill="#B5A79A"/>
<rect x="507" y="325" width="25" height="25" fill="#B5A79A"/>
<rect x="532" y="325" width="25" height="25" fill="#B5A79A"/>
<rect x="557" y="325" width="25" height="25" fill="#B5A79A"/>
<rect x="582" y="325" width="25" height="25" fill="#B5A79A"/>
<rect x="607" y="325" width="25" height="25" fill="#B5A79A"/>
<rect x="632" y="325" width="25" height="25" fill="#B5A79A"/>
<rect x="657" y="325" width="25" height="25" fill="#B5A79A"/>
<rect x="682" y="325" width="25" height="25" fill="#B5A79A"/>
<rect x="707" y="325" width="25" height="25" fill="#B5A79A"/>
<rect x="732" y="325" width="25" height="25" fill="#B5A79A"/>
<rect x="757" y="325" width="25" height="25" fill="#B5A79A"/>
<rect x="307" y="350" width="25" height="25" fill="#B5A79A"/>
<rect x="307" y="375" width="25" height="25" fill="#B5A79A"/>
<rect x="307" y="400" width="25" height="25" fill="#B5A79A"/>
<rect x="307" y="425" width="25" height="25" fill="#B5A79A"/>
<rect x="307" y="450" width="25" height="25" fill="#B5A79A"/>
<rect x="307" y="475" width="25" height="25" fill="#B5A79A"/>
<rect x="282" y="350" width="25" height="25" fill="#B5A79A"/>
<rect x="282" y="375" width="25" height="25" fill="#B5A79A"/>
<rect x="282" y="400" width="25" height="25" fill="#B5A79A"/>
<rect x="282" y="425" width="25" height="25" fill="#B5A79A"/>
<rect x="282" y="450" width="25" height="25" fill="#B5A79A"/>
<rect x="282" y="475" width="25" height="25" fill="#B5A79A"/>
<rect x="307" y="300" width="25" height="25" fill="#B5A79A"/>
<rect x="332" y="300" width="25" height="25" fill="#B5A79A"/>
<rect x="357" y="300" width="25" height="25" fill="#B5A79A"/>
<rect x="382" y="300" width="25" height="25" fill="#B5A79A"/>
<rect x="407" y="300" width="25" height="25" fill="#B5A79A"/>
<rect x="432" y="300" width="25" height="25" fill="#B5A79A"/>
<rect x="457" y="300" width="25" height="25" fill="#B5A79A"/>
<rect x="482" y="300" width="25" height="25" fill="#B5A79A"/>
<rect x="507" y="300" width="25" height="25" fill="#B5A79A"/>
<rect x="532" y="300" width="25" height="25" fill="#B5A79A"/>
<rect x="557" y="300" width="25" height="25" fill="#B5A79A"/>
<rect x="582" y="300" width="25" height="25" fill="#B5A79A"/>
<rect x="607" y="300" width="25" height="25" fill="#B5A79A"/>
<rect x="632" y="300" width="25" height="25" fill="#B5A79A"/>
<rect x="657" y="300" width="25" height="25" fill="#B5A79A"/>
<rect x="682" y="300" width="25" height="25" fill="#B5A79A"/>
<rect x="707" y="300" width="25" height="25" fill="#B5A79A"/>
<rect x="732" y="300" width="25" height="25" fill="#B5A79A"/>
<rect x="757" y="300" width="25" height="25" fill="#B5A79A"/>
<rect x="257" y="325" width="25" height="25" fill="#B5A79A"/>
<rect x="257" y="350" width="25" height="25" fill="#B5A79A"/>
<rect x="257" y="375" width="25" height="25" fill="#B5A79A"/>
<rect x="257" y="400" width="25" height="25" fill="#B5A79A"/>
<rect x="257" y="425" width="25" height="25" fill="#B5A79A"/>
<rect x="257" y="450" width="25" height="25" fill="#B5A79A"/>
<rect x="257" y="475" width="25" height="25" fill="#B5A79A"/>
<rect x="257" y="500" width="25" height="25" fill="#B5A79A"/>
<rect x="284" y="225" width="25" height="25" fill="#B5A79A"/>
<rect x="309" y="225" width="25" height="25" fill="#B5A79A"/>
<rect x="334" y="225" width="25" height="25" fill="#B5A79A"/>
<rect x="359" y="225" width="25" height="25" fill="#B5A79A"/>
<rect x="384" y="225" width="25" height="25" fill="#B5A79A"/>
<rect x="409" y="225" width="25" height="25" fill="#B5A79A"/>
<rect x="434" y="225" width="25" height="25" fill="#B5A79A"/>
<rect x="459" y="225" width="25" height="25" fill="#B5A79A"/>
<rect x="484" y="225" width="25" height="25" fill="#B5A79A"/>
<rect x="509" y="225" width="25" height="25" fill="#B5A79A"/>
<rect x="534" y="225" width="25" height="25" fill="#B5A79A"/>
<rect x="559" y="225" width="25" height="25" fill="#B5A79A"/>
<rect x="584" y="225" width="25" height="25" fill="#B5A79A"/>
<rect x="609" y="225" width="25" height="25" fill="#B5A79A"/>
<rect x="634" y="225" width="25" height="25" fill="#B5A79A"/>
<rect x="659" y="225" width="25" height="25" fill="#B5A79A"/>
<rect x="684" y="225" width="25" height="25" fill="#B5A79A"/>
<rect x="709" y="225" width="25" height="25" fill="#B5A79A"/>
<rect x="734" y="225" width="25" height="25" fill="#B5A79A"/>
<rect x="759" y="225" width="15" height="25" fill="#B5A79A"/>
<rect x="159" y="250" width="25" height="25" fill="#B5A79A"/>
<rect x="159" y="275" width="25" height="25" fill="#B5A79A"/>
<rect x="159" y="300" width="25" height="25" fill="#B5A79A"/>
<rect x="159" y="325" width="25" height="25" fill="#B5A79A"/>
<rect x="159" y="350" width="25" height="25" fill="#B5A79A"/>
<rect x="159" y="375" width="25" height="25" fill="#B5A79A"/>
<rect x="159" y="400" width="25" height="25" fill="#B5A79A"/>
<rect x="159" y="425" width="25" height="25" fill="#B5A79A"/>
<rect x="159" y="450" width="25" height="25" fill="#B5A79A"/>
<rect x="159" y="475" width="25" height="25" fill="#B5A79A"/>
<rect x="147" y="475" width="25" height="25" fill="#B5A79A"/>
<rect x="184" y="150" width="25" height="25" fill="#B5A79A"/>
<rect x="134" y="175" width="25" height="25" fill="#B5A79A"/>
<rect x="134" y="200" width="25" height="25" fill="#B5A79A"/>
<rect x="134" y="225" width="25" height="25" fill="#B5A79A"/>
<rect x="134" y="250" width="25" height="25" fill="#B5A79A"/>
<rect x="134" y="275" width="25" height="25" fill="#B5A79A"/>
<rect x="134" y="300" width="25" height="25" fill="#B5A79A"/>
<rect x="134" y="325" width="25" height="25" fill="#B5A79A"/>
<rect x="134" y="350" width="25" height="25" fill="#B5A79A"/>
<rect x="134" y="375" width="25" height="25" fill="#B5A79A"/>
<rect x="134" y="400" width="25" height="25" fill="#B5A79A"/>
<rect x="134" y="425" width="25" height="25" fill="#B5A79A"/>
<rect x="134" y="450" width="25" height="25" fill="#B5A79A"/>
<rect x="159" y="75" width="25" height="25" fill="#B5A79A"/>
<rect x="184" y="75" width="25" height="25" fill="#B5A79A"/>
<rect x="109" y="50" width="25" height="25" fill="#4A2607"/>
<rect x="109" y="75" width="25" height="25" fill="#4A2607"/>
<rect x="109" y="100" width="25" height="25" fill="#4A2607"/>
<rect x="21" y="100" width="25" height="25" fill="#4A2607"/>
<rect x="46" y="100" width="25" height="25" fill="#4A2607"/>
<rect x="71" y="100" width="25" height="25" fill="#4A2607"/>
<rect x="96" y="100" width="25" height="25" fill="#4A2607"/>
<rect x="421" y="102" width="25" height="25" fill="#4A2607"/>
<rect x="446" y="102" width="25" height="25" fill="#4A2607"/>
<rect x="471" y="102" width="25" height="25" fill="#4A2607"/>
<rect x="496" y="102" width="25" height="25" fill="#4A2607"/>
<rect x="421" y="138" width="25" height="25" fill="#4A2607"/>
<rect x="446" y="138" width="25" height="25" fill="#4A2607"/>
<rect x="471" y="138" width="25" height="25" fill="#4A2607"/>
<rect x="496" y="138" width="25" height="25" fill="#4A2607"/>
<rect x="21" y="138" width="25" height="25" fill="#4A2607"/>
<rect x="46" y="138" width="25" height="25" fill="#4A2607"/>
<rect x="71" y="138" width="25" height="25" fill="#4A2607"/>
<rect x="96" y="138" width="25" height="25" fill="#4A2607"/>
<rect x="96" y="125" width="25" height="25" fill="#4A2607"/>
<rect x="84" y="150" width="25" height="25" fill="#4A2607"/>
<rect x="72" y="175" width="25" height="25" fill="#4A2607"/>
<rect x="72" y="200" width="25" height="25" fill="#4A2607"/>
<rect x="72" y="225" width="25" height="25" fill="#4A2607"/>
<rect x="72" y="250" width="25" height="25" fill="#4A2607"/>
<rect x="60" y="275" width="25" height="25" fill="#4A2607"/>
<rect x="60" y="300" width="25" height="25" fill="#4A2607"/>
<rect x="60" y="325" width="25" height="25" fill="#4A2607"/>
<rect x="71" y="350" width="25" height="25" fill="#4A2607"/>
<rect x="82" y="375" width="25" height="25" fill="#4A2607"/>
<rect x="93" y="400" width="25" height="25" fill="#4A2607"/>
<rect x="104" y="425" width="25" height="25" fill="#4A2607"/>
<rect x="115" y="450" width="25" height="25" fill="#4A2607"/>
<rect x="129" y="475" width="25" height="25" fill="#4A2607"/>
<rect x="143" y="500" width="25" height="25" fill="#4A2607"/>
<rect x="166" y="500" width="25" height="25" fill="#4A2607"/>
<rect x="171" y="525" width="25" height="25" fill="#4A2607"/>
<rect x="193" y="525" width="25" height="25" fill="#4A2607"/>
<rect x="215" y="525" width="25" height="25" fill="#4A2607"/>
<rect x="215" y="500" width="25" height="25" fill="#4A2607"/>
<rect x="240" y="500" width="25" height="25" fill="#4A2607"/>
<rect x="265" y="500" width="25" height="25" fill="#4A2607"/>
<rect x="290" y="500" width="25" height="25" fill="#4A2607"/>
<rect x="308" y="500" width="25" height="25" fill="#4A2607"/>
<rect x="308" y="525" width="25" height="25" fill="#4A2607"/>
<rect x="333" y="525" width="25" height="25" fill="#4A2607"/>
<rect x="358" y="525" width="25" height="25" fill="#4A2607"/>
<rect x="358" y="500" width="25" height="25" fill="#4A2607"/>
<rect x="383" y="500" width="25" height="25" fill="#4A2607"/>
<rect x="408" y="500" width="25" height="25" fill="#4A2607"/>
<rect x="433" y="500" width="25" height="25" fill="#4A2607"/>
<rect x="458" y="500" width="25" height="25" fill="#4A2607"/>
<rect x="483" y="500" width="25" height="25" fill="#4A2607"/>
<rect x="496" y="500" width="25" height="25" fill="#4A2607"/>
<rect x="496" y="525" width="25" height="25" fill="#4A2607"/>
<rect x="521" y="525" width="25" height="25" fill="#4A2607"/>
<rect x="546" y="525" width="25" height="25" fill="#4A2607"/>
<rect x="546" y="500" width="25" height="25" fill="#4A2607"/>
<rect x="571" y="500" width="25" height="25" fill="#4A2607"/>
<rect x="596" y="500" width="25" height="25" fill="#4A2607"/>
<rect x="621" y="500" width="25" height="25" fill="#4A2607"/>
<rect x="646" y="525" width="25" height="25" fill="#4A2607"/>
<rect x="671" y="525" width="25" height="25" fill="#4A2607"/>
<rect x="696" y="501" width="25" height="25" fill="#4A2607"/>
<rect x="709" y="475" width="26" height="26" fill="#4A2607"/>
<rect x="722" y="450" width="25" height="25" fill="#4A2607"/>
<rect x="734" y="424" width="26" height="26" fill="#4A2607"/>
<rect x="748" y="398" width="26" height="26" fill="#4A2607"/>
<rect x="761" y="371" width="27" height="27" fill="#4A2607"/>
<rect x="774" y="346" width="25" height="25" fill="#4A2607"/>
<rect x="774" y="321" width="25" height="25" fill="#4A2607"/>
<rect x="774" y="296" width="25" height="25" fill="#4A2607"/>
<rect x="798" y="275" width="25" height="25" fill="#4A2607"/>
<rect x="823" y="263" width="25" height="25" fill="#4A2607"/>
<rect x="848" y="251" width="25" height="25" fill="#4A2607"/>
<rect x="873" y="239" width="25" height="25" fill="#4A2607"/>
<rect x="886" y="214" width="25" height="25" fill="#4A2607"/>
<rect x="899" y="189" width="25" height="25" fill="#4A2607"/>
<rect x="912" y="164" width="25" height="25" fill="#4A2607"/>
<rect x="896" y="139" width="25" height="25" fill="#4A2607"/>
<rect x="874" y="139" width="25" height="25" fill="#4A2607"/>
<rect x="849" y="148" width="25" height="25" fill="#4A2607"/>
<rect x="836" y="173" width="25" height="25" fill="#4A2607"/>
<rect x="821" y="198" width="25" height="25" fill="#4A2607"/>
<rect x="773" y="221" width="25" height="25" fill="#4A2607"/>
<rect x="798" y="221" width="25" height="25" fill="#4A2607"/>
<rect x="646" y="500" width="14" height="25" fill="#4A2607"/>
</svg>
