<svg width="900" height="900" viewBox="0 0 900 900" fill="none" xmlns="http://www.w3.org/2000/svg">
<rect x="675" y="325" width="25" height="25" fill="#FEEB94"/>
<rect x="325" y="150" width="25" height="25" fill="#FEEB94"/>
<rect x="350" y="125" width="25" height="25" fill="#FEEB94"/>
<rect x="375" y="100" width="25" height="25" fill="#FEEB94"/>
<rect x="250" y="225" width="25" height="25" fill="#FEEB94"/>
<rect x="275" y="225" width="25" height="25" fill="#FEEB94"/>
<rect x="300" y="225" width="25" height="25" fill="#FEEB94"/>
<rect x="325" y="225" width="25" height="25" fill="#FEEB94"/>
<rect x="225" y="250" width="25" height="25" fill="#FEEB94"/>
<rect x="250" y="250" width="25" height="25" fill="#FEEB94"/>
<rect x="275" y="250" width="25" height="25" fill="#FEEB94"/>
<rect x="299" y="250" width="25" height="25" fill="#FEEB94"/>
<rect x="323" y="250" width="25" height="25" fill="#FEEB94"/>
<rect x="348" y="250" width="25" height="25" fill="#FEEB94"/>
<rect x="564" y="251" width="25" height="25" fill="#FEEB94"/>
<rect x="589" y="251" width="25" height="25" fill="#FEEB94"/>
<rect x="614" y="251" width="25" height="25" fill="#FEEB94"/>
<rect x="639" y="251" width="25" height="25" fill="#FEEB94"/>
<rect x="225" y="275" width="25" height="25" fill="#FEEB94"/>
<rect x="250" y="275" width="25" height="25" fill="#FEEB94"/>
<rect x="275" y="276" width="25" height="25" fill="#FEEB94"/>
<rect x="275" y="276" width="25" height="25" fill="#FEEB94"/>
<rect x="275" y="275" width="25" height="25" fill="#FEEB94"/>
<rect x="301" y="276" width="25" height="25" fill="#FEEB94"/>
<rect x="300" y="275" width="25" height="25" fill="#FEEB94"/>
<rect x="325" y="275" width="25" height="25" fill="#FEEB94"/>
<rect x="349" y="275" width="25" height="25" fill="#FEEB94"/>
<rect x="373" y="276" width="25" height="25" fill="#FEEB94"/>
<rect x="397" y="276" width="25" height="25" fill="#FEEB94"/>
<rect x="421" y="276" width="25" height="25" fill="#FEEB94"/>
<rect x="470" y="276" width="25" height="25" fill="#FEEB94"/>
<rect x="493" y="276" width="25" height="25" fill="#FEEB94"/>
<rect x="518" y="276" width="25" height="25" fill="#FEEB94"/>
<rect x="543" y="276" width="25" height="25" fill="#FEEB94"/>
<rect x="568" y="276" width="25" height="25" fill="#FEEB94"/>
<rect x="593" y="276" width="25" height="25" fill="#FEEB94"/>
<rect x="618" y="276" width="25" height="25" fill="#FEEB94"/>
<rect x="643" y="276" width="25" height="25" fill="#FEEB94"/>
<rect x="200" y="300" width="25" height="25" fill="#FEEB94"/>
<rect x="225" y="300" width="25" height="25" fill="#FEEB94"/>
<rect x="250" y="300" width="25" height="25" fill="#FEEB94"/>
<rect x="275" y="300" width="25" height="25" fill="#FEEB94"/>
<rect x="300" y="300" width="25" height="25" fill="#FEEB94"/>
<rect x="325" y="300" width="25" height="25" fill="#FEEB94"/>
<rect x="350" y="300" width="25" height="25" fill="#FEEB94"/>
<rect x="375" y="300" width="25" height="25" fill="#FEEB94"/>
<rect x="400" y="300" width="25" height="25" fill="#FEEB94"/>
<rect x="438" y="174" width="25" height="26" fill="#FEEB94"/>
<rect x="443" y="198" width="25" height="26" fill="#FEEB94"/>
<rect x="459" y="174" width="25" height="26" fill="#FEEB94"/>
<rect x="477" y="174" width="25" height="26" fill="#FEEB94"/>
<rect x="424" y="162" width="26" height="25" fill="#FEEB94"/>
<rect x="425" y="141" width="25" height="25" fill="#FEEB94"/>
<rect x="451" y="124" width="25" height="25" fill="#FEEB94"/>
<rect x="450" y="149" width="25" height="25" fill="#FEEB94"/>
<rect x="472" y="149" width="25" height="25" fill="#FEEB94"/>
<rect x="494" y="149" width="25" height="25" fill="#FEEB94"/>
<rect x="516" y="149" width="25" height="25" fill="#FEEB94"/>
<rect x="425" y="300" width="25" height="25" fill="#FEEB94"/>
<rect x="450" y="300" width="25" height="25" fill="#FEEB94"/>
<rect x="475" y="300" width="25" height="25" fill="#FEEB94"/>
<rect x="500" y="300" width="25" height="25" fill="#FEEB94"/>
<rect x="525" y="300" width="25" height="25" fill="#FEEB94"/>
<rect x="550" y="300" width="25" height="25" fill="#FEEB94"/>
<rect x="575" y="300" width="25" height="25" fill="#FEEB94"/>
<rect x="600" y="300" width="25" height="25" fill="#FEEB94"/>
<rect x="625" y="300" width="25" height="25" fill="#FEEB94"/>
<rect x="650" y="300" width="25" height="25" fill="#FEEB94"/>
<rect x="200" y="325" width="25" height="25" fill="#FEEB94"/>
<rect x="225" y="325" width="25" height="25" fill="#FEEB94"/>
<rect x="250" y="325" width="25" height="25" fill="#FEEB94"/>
<rect x="275" y="325" width="25" height="25" fill="#FEEB94"/>
<rect x="300" y="325" width="25" height="25" fill="#FEEB94"/>
<rect x="325" y="325" width="25" height="25" fill="#FEEB94"/>
<rect x="350" y="325" width="25" height="25" fill="#FEEB94"/>
<rect x="375" y="325" width="25" height="25" fill="#FEEB94"/>
<rect x="400" y="325" width="25" height="25" fill="#FEEB94"/>
<rect x="425" y="325" width="25" height="25" fill="#FEEB94"/>
<rect x="450" y="325" width="25" height="25" fill="#FEEB94"/>
<rect x="475" y="325" width="25" height="25" fill="#FEEB94"/>
<rect x="500" y="325" width="25" height="25" fill="#FEEB94"/>
<rect x="525" y="325" width="25" height="25" fill="#FEEB94"/>
<rect x="550" y="325" width="25" height="25" fill="#FEEB94"/>
<rect x="575" y="325" width="25" height="25" fill="#FEEB94"/>
<rect x="600" y="325" width="25" height="25" fill="#FEEB94"/>
<rect x="625" y="325" width="25" height="25" fill="#FEEB94"/>
<rect x="650" y="325" width="25" height="25" fill="#FEEB94"/>
<rect x="175" y="350" width="25" height="25" fill="#FEEB94"/>
<rect x="200" y="350" width="25" height="25" fill="#FEEB94"/>
<rect x="225" y="350" width="25" height="25" fill="#FEEB94"/>
<rect x="250" y="350" width="25" height="25" fill="#FEEB94"/>
<rect x="275" y="350" width="25" height="25" fill="#FEEB94"/>
<rect x="300" y="350" width="25" height="25" fill="#FEEB94"/>
<rect x="325" y="350" width="25" height="25" fill="#FEEB94"/>
<rect x="350" y="350" width="25" height="25" fill="#FEEB94"/>
<rect x="375" y="350" width="25" height="25" fill="#FEEB94"/>
<rect x="400" y="350" width="25" height="25" fill="#FEEB94"/>
<rect x="425" y="350" width="25" height="25" fill="#FEEB94"/>
<rect x="450" y="350" width="25" height="25" fill="#FEEB94"/>
<rect x="475" y="350" width="25" height="25" fill="#FEEB94"/>
<rect x="500" y="350" width="25" height="25" fill="#FEEB94"/>
<rect x="525" y="350" width="25" height="25" fill="#FEEB94"/>
<rect x="550" y="350" width="25" height="25" fill="#FEEB94"/>
<rect x="575" y="350" width="25" height="25" fill="#FEEB94"/>
<rect x="600" y="350" width="25" height="25" fill="#FEEB94"/>
<rect x="625" y="350" width="25" height="25" fill="#FEEB94"/>
<rect x="650" y="350" width="25" height="25" fill="#FEEB94"/>
<rect x="675" y="350" width="25" height="25" fill="#FEEB94"/>
<rect x="150" y="375" width="25" height="25" fill="#FEEB94"/>
<rect x="150" y="375" width="25" height="25" fill="#FEEB94"/>
<rect x="150" y="375" width="25" height="25" fill="#FEEB94"/>
<rect x="150" y="375" width="25" height="25" fill="#FEEB94"/>
<rect x="150" y="375" width="25" height="25" fill="#FEEB94"/>
<rect x="150" y="375" width="25" height="25" fill="#FEEB94"/>
<rect x="150" y="375" width="25" height="25" fill="#FEEB94"/>
<rect x="150" y="375" width="25" height="25" fill="#FEEB94"/>
<rect x="175" y="375" width="25" height="25" fill="#FEEB94"/>
<rect x="200" y="375" width="25" height="25" fill="#FEEB94"/>
<rect x="225" y="375" width="25" height="25" fill="#FEEB94"/>
<rect x="250" y="375" width="25" height="25" fill="#FEEB94"/>
<rect x="275" y="375" width="25" height="25" fill="#FEEB94"/>
<rect x="300" y="375" width="25" height="25" fill="#FEEB94"/>
<rect x="325" y="375" width="25" height="25" fill="#FEEB94"/>
<rect x="350" y="375" width="25" height="25" fill="#FEEB94"/>
<rect x="375" y="375" width="25" height="25" fill="#FEEB94"/>
<rect x="400" y="375" width="25" height="25" fill="#FEEB94"/>
<rect x="425" y="375" width="25" height="25" fill="#FEEB94"/>
<rect x="450" y="375" width="25" height="25" fill="#FEEB94"/>
<rect x="475" y="375" width="25" height="25" fill="#FEEB94"/>
<rect x="500" y="375" width="25" height="25" fill="#FEEB94"/>
<rect x="525" y="375" width="25" height="25" fill="#FEEB94"/>
<rect x="550" y="375" width="25" height="25" fill="#FEEB94"/>
<rect x="575" y="375" width="25" height="25" fill="#FEEB94"/>
<rect x="600" y="375" width="25" height="25" fill="#FEEB94"/>
<rect x="625" y="375" width="25" height="25" fill="#FEEB94"/>
<rect x="650" y="375" width="25" height="25" fill="#FEEB94"/>
<rect x="675" y="375" width="25" height="25" fill="#FEEB94"/>
<rect x="700" y="375" width="25" height="25" fill="#FEEB94"/>
<rect x="125" y="400" width="25" height="25" fill="#FEEB94"/>
<rect x="100" y="450" width="25" height="25" fill="#FEEB94"/>
<rect x="150" y="400" width="25" height="25" fill="#FEEB94"/>
<rect x="174" y="400" width="25" height="25" fill="#FEEB94"/>
<rect x="198" y="400" width="25" height="25" fill="#FEEB94"/>
<rect x="222" y="400" width="25" height="25" fill="#FEEB94"/>
<rect x="246" y="400" width="25" height="25" fill="#FEEB94"/>
<rect x="270" y="400" width="25" height="25" fill="#FEEB94"/>
<rect x="294" y="400" width="25" height="25" fill="#FEEB94"/>
<rect x="318" y="400" width="25" height="25" fill="#FEEB94"/>
<rect x="342" y="400" width="25" height="25" fill="#FEEB94"/>
<rect x="366" y="400" width="25" height="25" fill="#FEEB94"/>
<rect x="390" y="400" width="25" height="25" fill="#FEEB94"/>
<rect x="414" y="400" width="25" height="25" fill="#FEEB94"/>
<rect x="438" y="400" width="25" height="25" fill="#FEEB94"/>
<rect x="462" y="400" width="25" height="25" fill="#FEEB94"/>
<rect x="486" y="400" width="25" height="25" fill="#FEEB94"/>
<rect x="510" y="400" width="25" height="25" fill="#FEEB94"/>
<rect x="534" y="400" width="25" height="25" fill="#FEEB94"/>
<rect x="558" y="400" width="25" height="25" fill="#FEEB94"/>
<rect x="582" y="400" width="25" height="25" fill="#FEEB94"/>
<rect x="606" y="400" width="25" height="25" fill="#FEEB94"/>
<rect x="630" y="400" width="25" height="25" fill="#FEEB94"/>
<rect x="654" y="400" width="25" height="25" fill="#FEEB94"/>
<rect x="678" y="400" width="25" height="25" fill="#FEEB94"/>
<rect x="702" y="400" width="25" height="25" fill="#FEEB94"/>
<rect x="125" y="425" width="25" height="25" fill="#FEEB94"/>
<rect x="150" y="425" width="25" height="25" fill="#FEEB94"/>
<rect x="175" y="425" width="25" height="25" fill="#FEEB94"/>
<rect x="200" y="425" width="25" height="25" fill="#FEEB94"/>
<rect x="225" y="425" width="25" height="25" fill="#FEEB94"/>
<rect x="250" y="425" width="25" height="25" fill="#FEEB94"/>
<rect x="275" y="425" width="25" height="25" fill="#FEEB94"/>
<rect x="300" y="425" width="25" height="25" fill="#FEEB94"/>
<rect x="325" y="425" width="25" height="25" fill="#FEEB94"/>
<rect x="350" y="425" width="25" height="25" fill="#FEEB94"/>
<rect x="375" y="425" width="25" height="25" fill="#FEEB94"/>
<rect x="400" y="425" width="25" height="25" fill="#FEEB94"/>
<rect x="425" y="425" width="25" height="25" fill="#FEEB94"/>
<rect x="450" y="425" width="25" height="25" fill="#FEEB94"/>
<rect x="475" y="425" width="25" height="25" fill="#FEEB94"/>
<rect x="500" y="425" width="25" height="25" fill="#FEEB94"/>
<rect x="525" y="425" width="25" height="25" fill="#FEEB94"/>
<rect x="550" y="425" width="25" height="25" fill="#FEEB94"/>
<rect x="575" y="425" width="25" height="25" fill="#FEEB94"/>
<rect x="600" y="425" width="25" height="25" fill="#FEEB94"/>
<rect x="625" y="425" width="25" height="25" fill="#FEEB94"/>
<rect x="650" y="425" width="25" height="25" fill="#FEEB94"/>
<rect x="675" y="425" width="25" height="25" fill="#FEEB94"/>
<rect x="700" y="425" width="25" height="25" fill="#FEEB94"/>
<rect x="725" y="425" width="25" height="25" fill="#FEEB94"/>
<rect x="125" y="450" width="25" height="25" fill="#FEEB94"/>
<rect x="150" y="450" width="25" height="25" fill="#FEEB94"/>
<rect x="175" y="450" width="25" height="25" fill="#FEEB94"/>
<rect x="200" y="450" width="25" height="25" fill="#FEEB94"/>
<rect x="225" y="450" width="25" height="25" fill="#FEEB94"/>
<rect x="250" y="450" width="25" height="25" fill="#FEEB94"/>
<rect x="275" y="450" width="25" height="25" fill="#FEEB94"/>
<rect x="300" y="450" width="25" height="25" fill="#FEEB94"/>
<rect x="325" y="450" width="25" height="25" fill="#FEEB94"/>
<rect x="350" y="450" width="25" height="25" fill="#FEEB94"/>
<rect x="375" y="450" width="25" height="25" fill="#FEEB94"/>
<rect x="400" y="450" width="25" height="25" fill="#FEEB94"/>
<rect x="425" y="450" width="25" height="25" fill="#FEEB94"/>
<rect x="450" y="450" width="25" height="25" fill="#FEEB94"/>
<rect x="475" y="450" width="25" height="25" fill="#FEEB94"/>
<rect x="500" y="450" width="25" height="25" fill="#FEEB94"/>
<rect x="525" y="450" width="25" height="25" fill="#FEEB94"/>
<rect x="550" y="450" width="25" height="25" fill="#FEEB94"/>
<rect x="575" y="450" width="25" height="25" fill="#FEEB94"/>
<rect x="600" y="450" width="25" height="25" fill="#FEEB94"/>
<rect x="625" y="450" width="25" height="25" fill="#FEEB94"/>
<rect x="650" y="450" width="25" height="25" fill="#FEEB94"/>
<rect x="675" y="450" width="25" height="25" fill="#FEEB94"/>
<rect x="700" y="450" width="25" height="25" fill="#FEEB94"/>
<rect x="725" y="450" width="25" height="25" fill="#FEEB94"/>
<rect x="100" y="475" width="25" height="25" fill="#FEEB94"/>
<rect x="125" y="475" width="25" height="25" fill="#FEEB94"/>
<rect x="150" y="475" width="25" height="25" fill="#FEEB94"/>
<rect x="175" y="475" width="25" height="25" fill="#FEEB94"/>
<rect x="200" y="475" width="25" height="25" fill="#FEEB94"/>
<rect x="225" y="475" width="25" height="25" fill="#FEEB94"/>
<rect x="250" y="475" width="25" height="25" fill="#FEEB94"/>
<rect x="275" y="475" width="25" height="25" fill="#FEEB94"/>
<rect x="300" y="475" width="25" height="25" fill="#FEEB94"/>
<rect x="325" y="475" width="25" height="25" fill="#FEEB94"/>
<rect x="350" y="475" width="25" height="25" fill="#FEEB94"/>
<rect x="375" y="475" width="25" height="25" fill="#FEEB94"/>
<rect x="400" y="475" width="25" height="25" fill="#FEEB94"/>
<rect x="425" y="475" width="25" height="25" fill="#FEEB94"/>
<rect x="450" y="475" width="25" height="25" fill="#FEEB94"/>
<rect x="475" y="475" width="25" height="25" fill="#FEEB94"/>
<rect x="500" y="475" width="25" height="25" fill="#FEEB94"/>
<rect x="525" y="475" width="25" height="25" fill="#FEEB94"/>
<rect x="550" y="475" width="25" height="25" fill="#FEEB94"/>
<rect x="575" y="475" width="25" height="25" fill="#FEEB94"/>
<rect x="600" y="475" width="25" height="25" fill="#FEEB94"/>
<rect x="625" y="475" width="25" height="25" fill="#FEEB94"/>
<rect x="650" y="475" width="25" height="25" fill="#FEEB94"/>
<rect x="675" y="475" width="25" height="25" fill="#FEEB94"/>
<rect x="700" y="475" width="25" height="25" fill="#FEEB94"/>
<rect x="725" y="475" width="25" height="25" fill="#FEEB94"/>
<rect x="750" y="475" width="25" height="25" fill="#FEEB94"/>
<rect x="100" y="500" width="25" height="25" fill="#FEEB94"/>
<rect x="125" y="500" width="25" height="25" fill="#FEEB94"/>
<rect x="150" y="500" width="25" height="25" fill="#FEEB94"/>
<rect x="175" y="500" width="25" height="25" fill="#FEEB94"/>
<rect x="200" y="500" width="25" height="25" fill="#FEEB94"/>
<rect x="225" y="500" width="25" height="25" fill="#FEEB94"/>
<rect x="250" y="500" width="25" height="25" fill="#FEEB94"/>
<rect x="275" y="500" width="25" height="25" fill="#FEEB94"/>
<rect x="300" y="500" width="25" height="25" fill="#FEEB94"/>
<rect x="325" y="500" width="25" height="25" fill="#FEEB94"/>
<rect x="350" y="500" width="25" height="25" fill="#FEEB94"/>
<rect x="375" y="500" width="25" height="25" fill="#FEEB94"/>
<rect x="400" y="500" width="25" height="25" fill="#FEEB94"/>
<rect x="425" y="500" width="25" height="25" fill="#FEEB94"/>
<rect x="450" y="500" width="25" height="25" fill="#FEEB94"/>
<rect x="475" y="500" width="25" height="25" fill="#FEEB94"/>
<rect x="500" y="500" width="25" height="25" fill="#FEEB94"/>
<rect x="525" y="500" width="25" height="25" fill="#FEEB94"/>
<rect x="550" y="500" width="25" height="25" fill="#FEEB94"/>
<rect x="575" y="500" width="25" height="25" fill="#FEEB94"/>
<rect x="600" y="500" width="25" height="25" fill="#FEEB94"/>
<rect x="625" y="500" width="25" height="25" fill="#FEEB94"/>
<rect x="650" y="500" width="25" height="25" fill="#FEEB94"/>
<rect x="675" y="500" width="25" height="25" fill="#FEEB94"/>
<rect x="700" y="500" width="25" height="25" fill="#FEEB94"/>
<rect x="725" y="500" width="25" height="25" fill="#FEEB94"/>
<rect x="750" y="500" width="25" height="25" fill="#FEEB94"/>
<rect x="125" y="525" width="25" height="25" fill="#FEEB94"/>
<rect x="150" y="525" width="25" height="25" fill="#FEEB94"/>
<rect x="175" y="525" width="25" height="25" fill="#FEEB94"/>
<rect x="200" y="525" width="25" height="25" fill="#FEEB94"/>
<rect x="225" y="525" width="25" height="25" fill="#FEEB94"/>
<rect x="250" y="525" width="25" height="25" fill="#FEEB94"/>
<rect x="275" y="525" width="25" height="25" fill="#FEEB94"/>
<rect x="300" y="525" width="25" height="25" fill="#FEEB94"/>
<rect x="325" y="525" width="25" height="25" fill="#FEEB94"/>
<rect x="350" y="525" width="25" height="25" fill="#FEEB94"/>
<rect x="375" y="525" width="25" height="25" fill="#FEEB94"/>
<rect x="400" y="525" width="25" height="25" fill="#FEEB94"/>
<rect x="425" y="525" width="25" height="25" fill="#FEEB94"/>
<rect x="450" y="525" width="25" height="25" fill="#FEEB94"/>
<rect x="475" y="525" width="25" height="25" fill="#FEEB94"/>
<rect x="500" y="525" width="25" height="25" fill="#FEEB94"/>
<rect x="525" y="525" width="25" height="25" fill="#FEEB94"/>
<rect x="550" y="525" width="25" height="25" fill="#FEEB94"/>
<rect x="575" y="525" width="25" height="25" fill="#FEEB94"/>
<rect x="600" y="525" width="25" height="25" fill="#FEEB94"/>
<rect x="625" y="525" width="25" height="25" fill="#FEEB94"/>
<rect x="650" y="525" width="25" height="25" fill="#FEEB94"/>
<rect x="675" y="525" width="25" height="25" fill="#FEEB94"/>
<rect x="700" y="525" width="25" height="25" fill="#FEEB94"/>
<rect x="725" y="525" width="25" height="25" fill="#FEEB94"/>
<rect x="750" y="525" width="25" height="25" fill="#FEEB94"/>
<rect x="125" y="550" width="25" height="25" fill="#FEEB94"/>
<rect x="150" y="550" width="25" height="25" fill="#FEEB94"/>
<rect x="175" y="550" width="25" height="25" fill="#FEEB94"/>
<rect x="200" y="550" width="25" height="25" fill="#FEEB94"/>
<rect x="225" y="550" width="25" height="25" fill="#FEEB94"/>
<rect x="250" y="550" width="25" height="25" fill="#FEEB94"/>
<rect x="275" y="550" width="25" height="25" fill="#FEEB94"/>
<rect x="300" y="550" width="25" height="25" fill="#FEEB94"/>
<rect x="325" y="550" width="25" height="25" fill="#FEEB94"/>
<rect x="350" y="550" width="25" height="25" fill="#FEEB94"/>
<rect x="375" y="550" width="25" height="25" fill="#FEEB94"/>
<rect x="400" y="550" width="25" height="25" fill="#FEEB94"/>
<rect x="425" y="550" width="25" height="25" fill="#FEEB94"/>
<rect x="450" y="550" width="25" height="25" fill="#FEEB94"/>
<rect x="475" y="550" width="25" height="25" fill="#FEEB94"/>
<rect x="500" y="550" width="25" height="25" fill="#FEEB94"/>
<rect x="525" y="550" width="25" height="25" fill="#FEEB94"/>
<rect x="550" y="550" width="25" height="25" fill="#FEEB94"/>
<rect x="575" y="550" width="25" height="25" fill="#FEEB94"/>
<rect x="600" y="550" width="25" height="25" fill="#FEEB94"/>
<rect x="625" y="550" width="25" height="25" fill="#FEEB94"/>
<rect x="650" y="550" width="25" height="25" fill="#FEEB94"/>
<rect x="675" y="550" width="25" height="25" fill="#FEEB94"/>
<rect x="700" y="550" width="25" height="25" fill="#FEEB94"/>
<rect x="725" y="550" width="25" height="25" fill="#FEEB94"/>
<rect x="750" y="550" width="25" height="25" fill="#FEEB94"/>
<rect x="125" y="575" width="25" height="25" fill="#FEEB94"/>
<rect x="150" y="575" width="25" height="25" fill="#FEEB94"/>
<rect x="175" y="575" width="25" height="25" fill="#FEEB94"/>
<rect x="200" y="575" width="25" height="25" fill="#FEEB94"/>
<rect x="225" y="575" width="25" height="25" fill="#FEEB94"/>
<rect x="250" y="575" width="25" height="25" fill="#FEEB94"/>
<rect x="275" y="575" width="25" height="25" fill="#FEEB94"/>
<rect x="300" y="575" width="25" height="25" fill="#FEEB94"/>
<rect x="325" y="575" width="25" height="25" fill="#FEEB94"/>
<rect x="350" y="575" width="25" height="25" fill="#FEEB94"/>
<rect x="375" y="575" width="25" height="25" fill="#FEEB94"/>
<rect x="400" y="575" width="25" height="25" fill="#FEEB94"/>
<rect x="425" y="575" width="25" height="25" fill="#FEEB94"/>
<rect x="450" y="575" width="25" height="25" fill="#FEEB94"/>
<rect x="475" y="575" width="25" height="25" fill="#FEEB94"/>
<rect x="500" y="575" width="25" height="25" fill="#FEEB94"/>
<rect x="525" y="575" width="25" height="25" fill="#FEEB94"/>
<rect x="550" y="575" width="25" height="25" fill="#FEEB94"/>
<rect x="575" y="575" width="25" height="25" fill="#FEEB94"/>
<rect x="600" y="575" width="25" height="25" fill="#FEEB94"/>
<rect x="625" y="575" width="25" height="25" fill="#FEEB94"/>
<rect x="650" y="575" width="25" height="25" fill="#FEEB94"/>
<rect x="675" y="575" width="25" height="25" fill="#FEEB94"/>
<rect x="700" y="575" width="25" height="25" fill="#FEEB94"/>
<rect x="725" y="575" width="25" height="25" fill="#FEEB94"/>
<rect x="750" y="575" width="25" height="25" fill="#FEEB94"/>
<rect x="125" y="600" width="25" height="25" fill="#FEEB94"/>
<rect x="150" y="600" width="25" height="25" fill="#FEEB94"/>
<rect x="175" y="600" width="25" height="25" fill="#FEEB94"/>
<rect x="200" y="600" width="25" height="25" fill="#FEEB94"/>
<rect x="225" y="600" width="25" height="25" fill="#FEEB94"/>
<rect x="250" y="600" width="25" height="25" fill="#FEEB94"/>
<rect x="275" y="600" width="25" height="25" fill="#FEEB94"/>
<rect x="300" y="600" width="25" height="25" fill="#FEEB94"/>
<rect x="325" y="600" width="25" height="25" fill="#FEEB94"/>
<rect x="350" y="600" width="25" height="25" fill="#FEEB94"/>
<rect x="375" y="600" width="25" height="25" fill="#FEEB94"/>
<rect x="400" y="600" width="25" height="25" fill="#FEEB94"/>
<rect x="425" y="600" width="25" height="25" fill="#FEEB94"/>
<rect x="450" y="600" width="25" height="25" fill="#FEEB94"/>
<rect x="475" y="600" width="25" height="25" fill="#FEEB94"/>
<rect x="500" y="600" width="25" height="25" fill="#FEEB94"/>
<rect x="525" y="600" width="25" height="25" fill="#FEEB94"/>
<rect x="550" y="600" width="25" height="25" fill="#FEEB94"/>
<rect x="575" y="600" width="25" height="25" fill="#FEEB94"/>
<rect x="600" y="600" width="25" height="25" fill="#FEEB94"/>
<rect x="625" y="600" width="25" height="25" fill="#FEEB94"/>
<rect x="650" y="600" width="25" height="25" fill="#FEEB94"/>
<rect x="675" y="600" width="25" height="25" fill="#FEEB94"/>
<rect x="700" y="600" width="25" height="25" fill="#FEEB94"/>
<rect x="725" y="600" width="25" height="25" fill="#FEEB94"/>
<rect x="750" y="600" width="25" height="25" fill="#FEEB94"/>
<rect x="125" y="625" width="25" height="25" fill="#FEEB94"/>
<rect x="150" y="625" width="25" height="25" fill="#FEEB94"/>
<rect x="175" y="625" width="25" height="25" fill="#FEEB94"/>
<rect x="200" y="625" width="25" height="25" fill="#FEEB94"/>
<rect x="225" y="625" width="25" height="25" fill="#FEEB94"/>
<rect x="250" y="625" width="25" height="25" fill="#FEEB94"/>
<rect x="275" y="625" width="25" height="25" fill="#FEEB94"/>
<rect x="300" y="625" width="25" height="25" fill="#FEEB94"/>
<rect x="325" y="625" width="25" height="25" fill="#FEEB94"/>
<rect x="350" y="625" width="25" height="25" fill="#FEEB94"/>
<rect x="375" y="625" width="25" height="25" fill="#FEEB94"/>
<rect x="400" y="625" width="25" height="25" fill="#FEEB94"/>
<rect x="425" y="625" width="25" height="25" fill="#FEEB94"/>
<rect x="450" y="625" width="25" height="25" fill="#FEEB94"/>
<rect x="475" y="625" width="25" height="25" fill="#FEEB94"/>
<rect x="500" y="625" width="25" height="25" fill="#FEEB94"/>
<rect x="525" y="625" width="25" height="25" fill="#FEEB94"/>
<rect x="550" y="625" width="25" height="25" fill="#FEEB94"/>
<rect x="575" y="625" width="25" height="25" fill="#FEEB94"/>
<rect x="600" y="625" width="25" height="25" fill="#FEEB94"/>
<rect x="625" y="625" width="25" height="25" fill="#FEEB94"/>
<rect x="650" y="625" width="25" height="25" fill="#FEEB94"/>
<rect x="675" y="625" width="25" height="25" fill="#FEEB94"/>
<rect x="700" y="625" width="25" height="25" fill="#FEEB94"/>
<rect x="725" y="625" width="25" height="25" fill="#FEEB94"/>
<rect x="750" y="625" width="25" height="25" fill="#FEEB94"/>
<rect x="125" y="650" width="25" height="25" fill="#FEEB94"/>
<rect x="150" y="650" width="25" height="25" fill="#FEEB94"/>
<rect x="175" y="650" width="25" height="25" fill="#FEEB94"/>
<rect x="200" y="650" width="25" height="25" fill="#FEEB94"/>
<rect x="225" y="650" width="25" height="25" fill="#FEEB94"/>
<rect x="250" y="650" width="25" height="25" fill="#FEEB94"/>
<rect x="275" y="650" width="25" height="25" fill="#FEEB94"/>
<rect x="300" y="650" width="25" height="25" fill="#FEEB94"/>
<rect x="325" y="650" width="25" height="25" fill="#FEEB94"/>
<rect x="350" y="650" width="25" height="25" fill="#FEEB94"/>
<rect x="375" y="650" width="25" height="25" fill="#FEEB94"/>
<rect x="400" y="650" width="25" height="25" fill="#FEEB94"/>
<rect x="425" y="650" width="25" height="25" fill="#FEEB94"/>
<rect x="450" y="650" width="25" height="25" fill="#FEEB94"/>
<rect x="475" y="650" width="25" height="25" fill="#FEEB94"/>
<rect x="500" y="650" width="25" height="25" fill="#FEEB94"/>
<rect x="525" y="650" width="25" height="25" fill="#FEEB94"/>
<rect x="550" y="650" width="25" height="25" fill="#FEEB94"/>
<rect x="575" y="650" width="25" height="25" fill="#FEEB94"/>
<rect x="600" y="650" width="25" height="25" fill="#FEEB94"/>
<rect x="625" y="650" width="25" height="25" fill="#FEEB94"/>
<rect x="650" y="650" width="25" height="25" fill="#FEEB94"/>
<rect x="675" y="650" width="25" height="25" fill="#FEEB94"/>
<rect x="700" y="650" width="25" height="25" fill="#FEEB94"/>
<rect x="725" y="650" width="25" height="25" fill="#FEEB94"/>
<rect x="150" y="675" width="25" height="25" fill="#FEEB94"/>
<rect x="175" y="675" width="25" height="25" fill="#FEEB94"/>
<rect x="200" y="675" width="25" height="25" fill="#FEEB94"/>
<rect x="225" y="675" width="25" height="25" fill="#FEEB94"/>
<rect x="250" y="675" width="25" height="25" fill="#FEEB94"/>
<rect x="275" y="675" width="25" height="25" fill="#FEEB94"/>
<rect x="300" y="675" width="25" height="25" fill="#FEEB94"/>
<rect x="325" y="675" width="25" height="25" fill="#FEEB94"/>
<rect x="350" y="675" width="25" height="25" fill="#FEEB94"/>
<rect x="375" y="675" width="25" height="25" fill="#FEEB94"/>
<rect x="400" y="675" width="25" height="25" fill="#FEEB94"/>
<rect x="425" y="675" width="25" height="25" fill="#FEEB94"/>
<rect x="450" y="675" width="25" height="25" fill="#FEEB94"/>
<rect x="475" y="675" width="25" height="25" fill="#FEEB94"/>
<rect x="500" y="675" width="25" height="25" fill="#FEEB94"/>
<rect x="525" y="675" width="25" height="25" fill="#FEEB94"/>
<rect x="550" y="675" width="25" height="25" fill="#FEEB94"/>
<rect x="575" y="675" width="25" height="25" fill="#FEEB94"/>
<rect x="600" y="675" width="25" height="25" fill="#FEEB94"/>
<rect x="625" y="675" width="25" height="25" fill="#FEEB94"/>
<rect x="650" y="675" width="25" height="25" fill="#FEEB94"/>
<rect x="675" y="675" width="25" height="25" fill="#FEEB94"/>
<rect x="700" y="675" width="25" height="25" fill="#FEEB94"/>
<rect x="725" y="675" width="25" height="25" fill="#FEEB94"/>
<rect x="150" y="700" width="25" height="25" fill="#FEEB94"/>
<rect x="175" y="700" width="25" height="25" fill="#FEEB94"/>
<rect x="200" y="700" width="25" height="25" fill="#FEEB94"/>
<rect x="225" y="700" width="25" height="25" fill="#FEEB94"/>
<rect x="250" y="700" width="25" height="25" fill="#FEEB94"/>
<rect x="275" y="700" width="25" height="25" fill="#FEEB94"/>
<rect x="300" y="700" width="25" height="25" fill="#FEEB94"/>
<rect x="325" y="700" width="25" height="25" fill="#FEEB94"/>
<rect x="350" y="700" width="25" height="25" fill="#FEEB94"/>
<rect x="375" y="700" width="25" height="25" fill="#FEEB94"/>
<rect x="400" y="700" width="25" height="25" fill="#FEEB94"/>
<rect x="425" y="700" width="25" height="25" fill="#FEEB94"/>
<rect x="450" y="700" width="25" height="25" fill="#FEEB94"/>
<rect x="475" y="700" width="25" height="25" fill="#FEEB94"/>
<rect x="500" y="700" width="25" height="25" fill="#FEEB94"/>
<rect x="525" y="700" width="25" height="25" fill="#FEEB94"/>
<rect x="550" y="700" width="25" height="25" fill="#FEEB94"/>
<rect x="575" y="700" width="25" height="25" fill="#FEEB94"/>
<rect x="600" y="700" width="25" height="25" fill="#FEEB94"/>
<rect x="625" y="700" width="25" height="25" fill="#FEEB94"/>
<rect x="650" y="700" width="25" height="25" fill="#FEEB94"/>
<rect x="675" y="700" width="25" height="25" fill="#FEEB94"/>
<rect x="700" y="700" width="25" height="25" fill="#FEEB94"/>
<rect x="175" y="725" width="25" height="25" fill="#FEEB94"/>
<rect x="199" y="725" width="25" height="25" fill="#FEEB94"/>
<rect x="223" y="725" width="25" height="25" fill="#FEEB94"/>
<rect x="247" y="725" width="25" height="25" fill="#FEEB94"/>
<rect x="271" y="725" width="25" height="25" fill="#FEEB94"/>
<rect x="295" y="725" width="25" height="25" fill="#FEEB94"/>
<rect x="319" y="725" width="25" height="25" fill="#FEEB94"/>
<rect x="343" y="725" width="25" height="25" fill="#FEEB94"/>
<rect x="367" y="725" width="25" height="25" fill="#FEEB94"/>
<rect x="391" y="725" width="25" height="25" fill="#FEEB94"/>
<rect x="415" y="725" width="25" height="25" fill="#FEEB94"/>
<rect x="439" y="725" width="25" height="25" fill="#FEEB94"/>
<rect x="463" y="725" width="25" height="25" fill="#FEEB94"/>
<rect x="487" y="725" width="25" height="25" fill="#FEEB94"/>
<rect x="511" y="725" width="25" height="25" fill="#FEEB94"/>
<rect x="535" y="725" width="25" height="25" fill="#FEEB94"/>
<rect x="559" y="725" width="25" height="25" fill="#FEEB94"/>
<rect x="583" y="725" width="25" height="25" fill="#FEEB94"/>
<rect x="607" y="725" width="25" height="25" fill="#FEEB94"/>
<rect x="631" y="725" width="25" height="25" fill="#FEEB94"/>
<rect x="655" y="725" width="25" height="25" fill="#FEEB94"/>
<rect x="679" y="725" width="25" height="25" fill="#FEEB94"/>
<rect x="200" y="750" width="25" height="25" fill="#FEEB94"/>
<rect x="225" y="750" width="25" height="25" fill="#FEEB94"/>
<rect x="250" y="750" width="25" height="25" fill="#FEEB94"/>
<rect x="275" y="750" width="25" height="25" fill="#FEEB94"/>
<rect x="446" y="281" width="25" height="25" fill="#F1824B"/>
<rect x="433" y="269" width="25" height="25" fill="#F1824B"/>
<rect x="458" y="269" width="25" height="25" fill="#F1824B"/>
<rect x="588" y="775" width="12" height="25" fill="#F1824B"/>
<rect x="600" y="775" width="25" height="25" fill="#F1824B"/>
<rect x="588" y="800" width="12" height="25" fill="#F1824B"/>
<rect x="600" y="800" width="25" height="25" fill="#F1824B"/>
<rect x="625" y="800" width="12" height="25" fill="#F1824B"/>
<rect x="588" y="825" width="12" height="25" fill="#F1824B"/>
<rect x="600" y="825" width="25" height="25" fill="#F1824B"/>
<rect x="563" y="850" width="25" height="25" fill="#F1824B"/>
<rect x="538" y="875" width="25" height="25" fill="#F1824B"/>
<rect x="600" y="850" width="25" height="25" fill="#F1824B"/>
<rect x="637" y="850" width="25" height="25" fill="#F1824B"/>
<rect x="662" y="875" width="25" height="25" fill="#F1824B"/>
<rect x="600" y="875" width="25" height="25" fill="#F1824B"/>
<rect x="625" y="775" width="12" height="25" fill="#F1824B"/>
<rect x="588" y="775" width="12" height="25" fill="#F1824B"/>
<rect x="600" y="775" width="25" height="25" fill="#F1824B"/>
<rect x="588" y="800" width="12" height="25" fill="#F1824B"/>
<rect x="600" y="800" width="25" height="25" fill="#F1824B"/>
<rect x="625" y="800" width="12" height="25" fill="#F1824B"/>
<rect x="588" y="825" width="12" height="25" fill="#F1824B"/>
<rect x="600" y="825" width="25" height="25" fill="#F1824B"/>
<rect x="563" y="850" width="25" height="25" fill="#F1824B"/>
<rect x="538" y="875" width="25" height="25" fill="#F1824B"/>
<rect x="600" y="850" width="25" height="25" fill="#F1824B"/>
<rect x="637" y="850" width="25" height="25" fill="#F1824B"/>
<rect x="662" y="875" width="25" height="25" fill="#F1824B"/>
<rect x="600" y="875" width="25" height="25" fill="#F1824B"/>
<rect x="625" y="775" width="12" height="25" fill="#F1824B"/>
<rect x="588" y="775" width="12" height="25" fill="#F1824B"/>
<rect x="600" y="775" width="25" height="25" fill="#F1824B"/>
<rect x="588" y="800" width="12" height="25" fill="#F1824B"/>
<rect x="600" y="800" width="25" height="25" fill="#F1824B"/>
<rect x="625" y="800" width="12" height="25" fill="#F1824B"/>
<rect x="588" y="825" width="12" height="25" fill="#F1824B"/>
<rect x="600" y="825" width="25" height="25" fill="#F1824B"/>
<rect x="563" y="850" width="25" height="25" fill="#F1824B"/>
<rect x="538" y="875" width="25" height="25" fill="#F1824B"/>
<rect x="600" y="850" width="25" height="25" fill="#F1824B"/>
<rect x="637" y="850" width="25" height="25" fill="#F1824B"/>
<rect x="662" y="875" width="25" height="25" fill="#F1824B"/>
<rect x="600" y="875" width="25" height="25" fill="#F1824B"/>
<rect x="625" y="775" width="12" height="25" fill="#F1824B"/>
<rect x="625" y="825" width="12" height="25" fill="#F1824B"/>
<rect x="276" y="775" width="12" height="25" fill="#F1824B"/>
<rect x="288" y="775" width="25" height="25" fill="#F1824B"/>
<rect x="276" y="800" width="12" height="25" fill="#F1824B"/>
<rect x="288" y="800" width="25" height="25" fill="#F1824B"/>
<rect x="313" y="800" width="12" height="25" fill="#F1824B"/>
<rect x="276" y="825" width="12" height="25" fill="#F1824B"/>
<rect x="288" y="825" width="25" height="25" fill="#F1824B"/>
<rect x="251" y="850" width="25" height="25" fill="#F1824B"/>
<rect x="226" y="875" width="25" height="25" fill="#F1824B"/>
<rect x="288" y="850" width="25" height="25" fill="#F1824B"/>
<rect x="325" y="850" width="25" height="25" fill="#F1824B"/>
<rect x="350" y="875" width="25" height="25" fill="#F1824B"/>
<rect x="288" y="875" width="25" height="25" fill="#F1824B"/>
<rect x="313" y="775" width="12" height="25" fill="#F1824B"/>
<rect x="313" y="825" width="12" height="25" fill="#F1824B"/>
<rect x="300" y="750" width="25" height="25" fill="#FEEB94"/>
<rect x="325" y="750" width="25" height="25" fill="#FEEB94"/>
<rect x="350" y="750" width="25" height="25" fill="#FEEB94"/>
<rect x="375" y="750" width="25" height="25" fill="#FEEB94"/>
<rect x="400" y="750" width="25" height="25" fill="#FEEB94"/>
<rect x="425" y="750" width="25" height="25" fill="#FEEB94"/>
<rect x="450" y="750" width="25" height="25" fill="#FEEB94"/>
<rect x="475" y="750" width="25" height="25" fill="#FEEB94"/>
<rect x="500" y="750" width="25" height="25" fill="#FEEB94"/>
<rect x="525" y="750" width="25" height="25" fill="#FEEB94"/>
<rect x="550" y="750" width="25" height="25" fill="#FEEB94"/>
<rect x="575" y="750" width="25" height="25" fill="#FEEB94"/>
<rect x="550" y="200" width="25" height="25" fill="#FEEB94"/>
<rect x="625" y="226" width="25" height="25" fill="#FEEB94"/>
<rect x="601" y="226" width="25" height="25" fill="#FEEB94"/>
<rect x="577" y="226" width="25" height="25" fill="#FEEB94"/>
<rect x="650" y="250" width="25" height="25" fill="#FEEB94"/>
<rect x="650" y="275" width="25" height="25" fill="#FEEB94"/>
<rect x="576" y="175" width="25" height="25" fill="#FEEB94"/>
<rect x="551" y="150" width="25" height="25" fill="#FEEB94"/>
<rect x="526" y="125" width="25" height="25" fill="#FEEB94"/>
<rect x="539" y="237" width="25" height="25" fill="white"/>
<rect x="525" y="249" width="25" height="25" fill="white"/>
<rect x="475" y="187" width="25" height="25" fill="white"/>
<rect x="500" y="187" width="25" height="25" fill="white"/>
<rect x="489" y="175" width="25" height="25" fill="white"/>
<rect x="513" y="174" width="25" height="25" fill="white"/>
<rect x="535" y="175" width="25" height="25" fill="white"/>
<rect x="525" y="187" width="25" height="25" fill="white"/>
<rect x="550" y="200" width="25" height="25" fill="white"/>
<rect x="561" y="225" width="27" height="25" fill="white"/>
<rect x="539" y="251" width="25" height="25" fill="white"/>
<rect x="548" y="239" width="25" height="25" fill="white"/>
<rect x="500" y="260" width="25" height="25" fill="white"/>
<rect x="514" y="257" width="25" height="25" fill="white"/>
<rect x="525" y="212" width="25" height="25" fill="white"/>
<rect x="525" y="236" width="25" height="25" fill="white"/>
<rect x="513" y="212" width="25" height="25" fill="white"/>
<rect x="513" y="236" width="25" height="25" fill="white"/>
<rect x="488" y="237" width="25" height="25" fill="white"/>
<rect x="463" y="236" width="25" height="25" fill="white"/>
<rect x="463" y="212" width="25" height="25" fill="white"/>
<rect x="500" y="249" width="25" height="25" fill="white"/>
<rect x="475" y="243" width="25" height="25" fill="white"/>
<rect x="483" y="251" width="25" height="25" fill="white"/>
<rect x="408" y="251" width="25" height="25" fill="white"/>
<rect x="451" y="225" width="25" height="25" fill="white"/>
<rect width="25" height="25" transform="matrix(-1 0 0 1 438 187)" fill="white"/>
<rect width="25" height="25" transform="matrix(-1 0 0 1 413 187)" fill="white"/>
<rect width="25" height="25" transform="matrix(-1 0 0 1 424 175)" fill="white"/>
<rect width="25" height="25" transform="matrix(-1 0 0 1 400 174)" fill="white"/>
<rect width="25" height="25" transform="matrix(-1 0 0 1 378 175)" fill="white"/>
<rect width="25" height="25" transform="matrix(-1 0 0 1 388 187)" fill="white"/>
<rect width="27" height="25" transform="matrix(-1 0 0 1 353 225)" fill="white"/>
<rect width="25" height="25" transform="matrix(-1 0 0 1 375 255)" fill="white"/>
<rect width="25" height="25" transform="matrix(-1 0 0 1 365 244)" fill="white"/>
<rect width="25" height="25" transform="matrix(-1 0 0 1 413 260)" fill="white"/>
<rect width="25" height="25" transform="matrix(-1 0 0 1 395 260)" fill="white"/>
<rect width="25" height="25" transform="matrix(-1 0 0 1 388 212)" fill="white"/>
<rect width="25" height="25" transform="matrix(-1 0 0 1 388 236)" fill="white"/>
<rect width="25" height="25" transform="matrix(-1 0 0 1 400 212)" fill="white"/>
<rect width="25" height="25" transform="matrix(-1 0 0 1 400 236)" fill="white"/>
<rect width="25" height="25" transform="matrix(-1 0 0 1 425 237)" fill="white"/>
<rect width="25" height="25" transform="matrix(-1 0 0 1 450 236)" fill="white"/>
<rect width="25" height="25" transform="matrix(-1 0 0 1 450 212)" fill="white"/>
<rect width="25" height="25" transform="matrix(-1 0 0 1 413 249)" fill="white"/>
<rect width="25" height="25" transform="matrix(-1 0 0 1 438 243)" fill="white"/>
<rect width="25" height="25" transform="matrix(-1 0 0 1 458 244)" fill="white"/>
<rect width="25" height="25" transform="matrix(-1 0 0 1 483 244)" fill="white"/>
<rect x="468" y="235" width="25" height="25" fill="#643A21"/>
<rect x="420" y="235" width="25" height="25" fill="#643A21"/>
<rect x="501" y="100" width="25" height="25" fill="#FEEB94"/>
<rect x="476" y="100" width="25" height="25" fill="#FEEB94"/>
<rect x="451" y="100" width="25" height="25" fill="#FEEB94"/>
<rect x="426" y="100" width="25" height="25" fill="#FEEB94"/>
<rect x="401" y="100" width="25" height="25" fill="#FEEB94"/>
<rect x="400" y="100" width="25" height="25" fill="#F5F5F5"/>
<rect x="376" y="100" width="25" height="25" fill="#6F7324"/>
<rect x="401" y="100" width="25" height="25" fill="#6F7324"/>
<rect x="426" y="100" width="25" height="25" fill="#6F7324"/>
<rect x="415" y="75" width="25" height="25" fill="#6F7324"/>
<rect x="440" y="75" width="25" height="25" fill="#6F7324"/>
<rect x="464" y="75" width="25" height="25" fill="#6F7324"/>
<rect x="488" y="75" width="25" height="25" fill="#6F7324"/>
<rect x="440" y="50" width="25" height="25" fill="#6F7324"/>
<rect x="453" width="25" height="25" fill="#6F7324"/>
<rect x="453" y="25" width="25" height="25" fill="#6F7324"/>
<rect x="464" y="50" width="25" height="25" fill="#6F7324"/>
<rect x="451" y="100" width="25" height="25" fill="#6F7324"/>
<rect x="476" y="100" width="25" height="25" fill="#6F7324"/>
<rect x="501" y="100" width="25" height="25" fill="#6F7324"/>
<rect x="526" y="100" width="25" height="25" fill="#6F7324"/>
<rect x="278" y="199" width="25" height="25" fill="#D1D494"/>
<rect x="303" y="199" width="25" height="25" fill="#D1D494"/>
<rect x="328" y="199" width="25" height="25" fill="#D1D494"/>
<rect x="339" y="200" width="25" height="25" fill="white"/>
<rect x="300" y="175" width="25" height="25" fill="#D1D494"/>
<rect x="324" y="175" width="25" height="25" fill="#D1D494"/>
<rect x="348" y="174" width="25" height="25" fill="#D1D494"/>
<rect x="376" y="125" width="25" height="25" fill="#D1D494"/>
<rect x="351" y="125" width="25" height="25" fill="#D1D494"/>
<rect x="326" y="150" width="25" height="25" fill="#D1D494"/>
<rect x="351" y="150" width="25" height="25" fill="#D1D494"/>
<rect x="376" y="150" width="25" height="25" fill="#D1D494"/>
<rect x="400" y="150" width="25" height="25" fill="#D1D494"/>
<rect x="401" y="125" width="25" height="25" fill="#D1D494"/>
<rect x="426" y="125" width="25" height="25" fill="#D1D494"/>
<rect x="204" y="170" width="25" height="25" fill="#D1D494"/>
<rect x="229" y="170" width="25" height="25" fill="#D1D494"/>
<rect x="254" y="170" width="25" height="25" fill="#D1D494"/>
<rect x="227" y="149" width="25" height="25" fill="#D1D494"/>
<rect x="251" y="149" width="25" height="25" fill="#D1D494"/>
<rect x="275" y="149" width="25" height="25" fill="#D1D494"/>
<rect x="304" y="100" width="25" height="25" fill="#D1D494"/>
<rect x="279" y="100" width="25" height="25" fill="#D1D494"/>
<rect x="253" y="125" width="25" height="25" fill="#D1D494"/>
<rect x="278" y="125" width="25" height="25" fill="#D1D494"/>
<rect x="303" y="125" width="25" height="25" fill="#D1D494"/>
<rect x="327" y="125" width="25" height="25" fill="#D1D494"/>
<rect x="328" y="100" width="25" height="25" fill="#D1D494"/>
<rect x="353" y="100" width="25" height="25" fill="#D1D494"/>
<rect width="25" height="25" transform="matrix(-1 0 0 1 722 175)" fill="#D1D494"/>
<rect width="25" height="25" transform="matrix(-1 0 0 1 697 175)" fill="#D1D494"/>
<rect width="25" height="25" transform="matrix(-1 0 0 1 672 175)" fill="#D1D494"/>
<rect width="25" height="25" transform="matrix(-1 0 0 1 697 150)" fill="#D1D494"/>
<rect width="25" height="25" transform="matrix(-1 0 0 1 672 150)" fill="#D1D494"/>
<rect width="25" height="25" transform="matrix(-1 0 0 1 647 150)" fill="#D1D494"/>
<rect width="25" height="25" transform="matrix(-1 0 0 1 622 100)" fill="#D1D494"/>
<rect width="25" height="25" transform="matrix(-1 0 0 1 647 100)" fill="#D1D494"/>
<rect width="25" height="25" transform="matrix(-1 0 0 1 671 125)" fill="#D1D494"/>
<rect width="25" height="25" transform="matrix(-1 0 0 1 646 125)" fill="#D1D494"/>
<rect width="25" height="25" transform="matrix(-1 0 0 1 621 125)" fill="#D1D494"/>
<rect width="25" height="25" transform="matrix(-1 0 0 1 596 125)" fill="#D1D494"/>
<rect width="25" height="25" transform="matrix(-1 0 0 1 598 100)" fill="#D1D494"/>
<rect width="25" height="25" transform="matrix(-1 0 0 1 573 100)" fill="#D1D494"/>
<rect x="543" y="181" width="25" height="25" fill="white"/>
<rect x="358" y="181" width="25" height="25" fill="white"/>
<rect x="600" y="200" width="25" height="25" fill="#D1D494"/>
<rect x="624" y="200" width="25" height="25" fill="#D1D494"/>
<rect x="575" y="200" width="25" height="25" fill="#D1D494"/>
<rect x="525" y="125" width="25" height="25" fill="#D1D494"/>
<rect x="550" y="125" width="25" height="25" fill="#D1D494"/>
<rect x="575" y="150" width="25" height="25" fill="#D1D494"/>
<rect x="600" y="175" width="25" height="25" fill="#D1D494"/>
<rect x="575" y="175" width="25" height="25" fill="#D1D494"/>
<rect x="556" y="163" width="25" height="25" fill="#D1D494"/>
<rect x="525" y="150" width="25" height="25" fill="#D1D494"/>
<rect x="501" y="150" width="25" height="25" fill="#D1D494"/>
<rect x="476" y="125" width="25" height="25" fill="#D1D494"/>
<rect x="501" y="125" width="25" height="25" fill="#D1D494"/>
<rect x="550" y="150" width="25" height="25" fill="#D1D494"/>
<rect x="675" y="300" width="25" height="25" fill="#FEEB94"/>
<rect x="675" y="325" width="25" height="25" fill="#FEEB94"/>
<rect x="700" y="350" width="25" height="25" fill="#FEEB94"/>
<rect x="725" y="375" width="25" height="25" fill="#FEEB94"/>
<rect x="725" y="400" width="25" height="25" fill="#FEEB94"/>
<rect x="750" y="400" width="25" height="25" fill="#FEEB94"/>
<rect x="750" y="425" width="25" height="25" fill="#FEEB94"/>
<rect x="775" y="425" width="25" height="25" fill="#FEEB94"/>
<rect x="800" y="425" width="25" height="25" fill="#FEEB94"/>
<rect x="750" y="450" width="25" height="25" fill="#FEEB94"/>
<rect x="775" y="450" width="25" height="25" fill="#FEEB94"/>
<rect x="800" y="450" width="25" height="25" fill="#FEEB94"/>
<rect x="825" y="450" width="25" height="25" fill="#FEEB94"/>
<rect x="800" y="475" width="25" height="25" fill="#FEEB94"/>
<rect x="825" y="475" width="25" height="25" fill="#FEEB94"/>
<rect x="850" y="475" width="25" height="25" fill="#FEEB94"/>
<rect x="800" y="500" width="25" height="25" fill="#FEEB94"/>
<rect x="825" y="500" width="25" height="25" fill="#FEEB94"/>
<rect x="850" y="500" width="25" height="25" fill="#FEEB94"/>
<rect x="825" y="525" width="25" height="25" fill="#FEEB94"/>
<rect x="850" y="525" width="25" height="25" fill="#FEEB94"/>
<rect x="775" y="400" width="25" height="25" fill="#FEEB94"/>
<rect x="800" y="400" width="25" height="25" fill="#FEEB94"/>
<rect x="825" y="425" width="25" height="25" fill="#FEEB94"/>
<rect x="850" y="450" width="25" height="25" fill="#FEEB94"/>
<rect x="875" y="475" width="25" height="25" fill="#FEEB94"/>
<rect x="875" y="500" width="25" height="25" fill="#FEEB94"/>
<rect x="875" y="525" width="25" height="25" fill="#FEEB94"/>
<rect x="850" y="550" width="25" height="25" fill="#FEEB94"/>
<rect x="825" y="550" width="25" height="25" fill="#FEEB94"/>
<rect x="800" y="525" width="25" height="25" fill="#FEEB94"/>
<rect x="775" y="475" width="25" height="25" fill="#FEEB94"/>
<rect x="775" y="500" width="25" height="25" fill="#FEEB94"/>
<rect width="25" height="25" transform="matrix(-1 0 0 1 125 400)" fill="#FEEB94"/>
<rect width="25" height="25" transform="matrix(-1 0 0 1 100 400)" fill="#FEEB94"/>
<rect width="25" height="25" transform="matrix(-1 0 0 1 75 425)" fill="#FEEB94"/>
<rect width="25" height="25" transform="matrix(-1 0 0 1 100 425)" fill="#FEEB94"/>
<rect width="25" height="25" transform="matrix(-1 0 0 1 125 425)" fill="#FEEB94"/>
<rect width="25" height="25" transform="matrix(-1 0 0 1 75 450)" fill="#FEEB94"/>
<rect width="25" height="25" transform="matrix(-1 0 0 1 100 450)" fill="#FEEB94"/>
<rect width="25" height="25" transform="matrix(-1 0 0 1 50 475)" fill="#FEEB94"/>
<rect width="25" height="25" transform="matrix(-1 0 0 1 75 475)" fill="#FEEB94"/>
<rect width="25" height="25" transform="matrix(-1 0 0 1 100 475)" fill="#FEEB94"/>
<rect width="25" height="25" transform="matrix(-1 0 0 1 50 500)" fill="#FEEB94"/>
<rect width="25" height="25" transform="matrix(-1 0 0 1 75 500)" fill="#FEEB94"/>
<rect width="25" height="25" transform="matrix(-1 0 0 1 100 500)" fill="#FEEB94"/>
<rect width="25" height="25" transform="matrix(-1 0 0 1 50 525)" fill="#FEEB94"/>
<rect width="25" height="25" transform="matrix(-1 0 0 1 75 525)" fill="#FEEB94"/>
<rect width="25" height="25" transform="matrix(-1 0 0 1 50 450)" fill="#FEEB94"/>
<rect width="25" height="25" transform="matrix(-1 0 0 1 25 475)" fill="#FEEB94"/>
<rect width="25" height="25" transform="matrix(-1 0 0 1 25 500)" fill="#FEEB94"/>
<rect width="25" height="25" transform="matrix(-1 0 0 1 25 525)" fill="#FEEB94"/>
<rect width="25" height="25" transform="matrix(-1 0 0 1 50 550)" fill="#FEEB94"/>
<rect width="25" height="25" transform="matrix(-1 0 0 1 75 550)" fill="#FEEB94"/>
<rect width="25" height="25" transform="matrix(-1 0 0 1 100 525)" fill="#FEEB94"/>
<rect width="25" height="25" transform="matrix(-1 0 0 1 125 475)" fill="#FEEB94"/>
<rect width="25" height="25" transform="matrix(-1 0 0 1 125 500)" fill="#FEEB94"/>
<rect x="725" y="700" width="25" height="25" fill="#FEEB94"/>
<rect x="700" y="725" width="25" height="25" fill="#FEEB94"/>
<rect x="625" y="750" width="25" height="25" fill="#FEEB94"/>
<rect x="650" y="750" width="25" height="25" fill="#FEEB94"/>
<rect x="675" y="750" width="25" height="25" fill="#FEEB94"/>
<rect x="600" y="750" width="25" height="25" fill="#FEEB94"/>
</svg>
