<svg width="146" height="167" viewBox="0 0 146 167" fill="none" xmlns="http://www.w3.org/2000/svg">
<rect x="38.4971" y="33.5354" width="80" height="80" rx="10" transform="rotate(-22.5004 38.4971 33.5354)" fill="#1E1E1E"/>
<g clip-path="url(#clip0_231_450)">
<path d="M93.5001 35.738C92.275 36.2455 91.3016 37.2189 90.7942 38.4441C90.2867 39.6692 90.2868 41.0458 90.7943 42.2709L98.4484 60.7483C98.9559 61.9735 99.9292 62.9468 101.154 63.4543C102.38 63.9617 103.756 63.9617 104.981 63.4542C106.206 62.9467 107.18 61.9733 107.687 60.7481C108.195 59.523 108.195 58.1464 107.687 56.9213C107.18 55.6962 106.206 54.7228 104.981 54.2154C103.756 53.7079 102.379 53.708 101.154 54.2155L82.6768 61.8696C81.4516 62.3771 80.4783 63.3504 79.9709 64.5756C79.4634 65.8008 79.4634 67.1773 79.9709 68.4024C80.4784 69.6276 81.4518 70.6009 82.677 71.1084C83.9021 71.6158 85.2787 71.6158 86.5038 71.1083C87.7289 70.6008 88.7023 69.6274 89.2097 68.4022C89.7172 67.1771 89.7171 65.8005 89.2096 64.5754L81.5556 46.098C81.0481 44.8728 80.0747 43.8995 78.8495 43.3921C77.6244 42.8846 76.2478 42.8846 75.0227 43.3921C73.7975 43.8996 72.8242 44.873 72.3168 46.0982C71.8093 47.3233 71.8093 48.6999 72.3168 49.925C72.8243 51.1501 73.7977 52.1235 75.0229 52.6309C76.248 53.1384 77.6246 53.1383 78.8497 52.6308L97.3271 44.9768C98.5523 44.4693 99.5256 43.4959 100.033 42.2707C100.54 41.0456 100.54 39.669 100.033 38.4439C99.5255 37.2187 98.5521 36.2454 97.3269 35.738C96.1018 35.2305 94.7252 35.2305 93.5001 35.738Z" stroke="#F5F5F5" stroke-width="3" stroke-linecap="round" stroke-linejoin="round"/>
</g>
<rect x="11.4671" y="79.1033" width="77" height="77" rx="8.5" transform="rotate(7.303 11.4671 79.1033)" fill="white" stroke="#D9D9D9" stroke-width="3"/>
<path d="M33.9872 134.408L34.3625 131.479L50.1233 114.088L36.7327 112.372L37.2379 108.429L56.4615 110.891L56.0863 113.82L40.3381 131.213L53.716 132.927L53.2108 136.87L33.9872 134.408Z" fill="black"/>
<defs>
<clipPath id="clip0_231_450">
<rect width="40" height="40" fill="white" transform="translate(63.8701 42.5999) rotate(-22.5013)"/>
</clipPath>
</defs>
</svg>
