<svg width="276" height="113" viewBox="0 0 276 113" fill="none" xmlns="http://www.w3.org/2000/svg">
<rect x="5.5" y="5.5" width="252" height="49" fill="#BADDFD" fill-opacity="0.5" stroke="#3A78FF" stroke-width="3"/>
<rect x="1.5" y="53.5" width="5" height="5" fill="white" stroke="#3A78FF" stroke-width="3"/>
<rect x="1.5" y="1.5" width="5" height="5" fill="white" stroke="#3A78FF" stroke-width="3"/>
<rect x="256.5" y="53.5" width="5" height="5" fill="white" stroke="#3A78FF" stroke-width="3"/>
<rect x="256.5" y="1.5" width="5" height="5" fill="white" stroke="#3A78FF" stroke-width="3"/>
<path d="M168.533 47.7155C169.1 47.7141 169.661 47.8334 170.178 48.0663L170.433 48.1928L170.466 48.2113L195.788 62.3639L195.805 62.3731L195.821 62.3834C196.407 62.7231 196.896 63.2059 197.242 63.7842L197.382 64.0372L197.382 64.0381C197.73 64.7296 197.869 65.5076 197.781 66.2769L197.781 66.2779C197.694 67.0466 197.384 67.7743 196.89 68.3706L196.889 68.3695C196.395 68.9651 195.738 69.4049 194.999 69.6331L194.98 69.6383L194.963 69.6437L184.311 72.7505L178.334 82.0882C177.912 82.7475 177.304 83.2675 176.588 83.5827C175.871 83.898 175.078 83.993 174.307 83.8588L174.306 83.8587C173.534 83.7243 172.821 83.3658 172.254 82.8279L172.253 82.8278C171.756 82.3565 171.39 81.766 171.19 81.1143L171.114 80.8311L164.655 52.562L164.65 52.5425L164.646 52.5231C164.488 51.7796 164.547 51.0064 164.815 50.2951L164.924 50.0326C165.201 49.4313 165.624 48.9069 166.156 48.5087L166.39 48.3469C166.947 47.9892 167.586 47.7751 168.249 47.7261L168.533 47.7155Z" fill="#3A78FF" stroke="white" stroke-width="5"/>
<path d="M33.1503 39.224C31.4009 39.224 29.9289 38.808 28.7343 37.976C27.5609 37.144 26.6863 36.056 26.1103 34.712C25.5343 33.368 25.2463 31.9387 25.2463 30.424C25.2463 28.9307 25.5343 27.5227 26.1103 26.2C26.6863 24.856 27.5609 23.768 28.7343 22.936C29.9289 22.0827 31.4009 21.656 33.1503 21.656C34.6223 21.656 35.8809 21.9547 36.9263 22.552C37.9716 23.1493 38.7823 23.9387 39.3583 24.92C39.9343 25.9013 40.2969 26.9573 40.4463 28.088H38.3023C38.0889 26.7653 37.5449 25.688 36.6703 24.856C35.7956 24.024 34.6223 23.608 33.1503 23.608C31.3156 23.608 29.9076 24.2587 28.9263 25.56C27.9663 26.84 27.4863 28.4613 27.4863 30.424C27.4863 32.408 27.9663 34.0507 28.9263 35.352C29.9076 36.632 31.3156 37.272 33.1503 37.272C34.6223 37.272 35.7956 36.8667 36.6703 36.056C37.5449 35.224 38.0889 34.136 38.3023 32.792H40.4463C40.2969 33.9227 39.9343 34.9787 39.3583 35.96C38.7823 36.9413 37.9716 37.7307 36.9263 38.328C35.8809 38.9253 34.6223 39.224 33.1503 39.224ZM51.843 39.192C50.1577 39.192 48.7283 38.776 47.555 37.944C46.3817 37.112 45.4963 36.0347 44.899 34.712C44.323 33.368 44.035 31.9493 44.035 30.456C44.035 28.9413 44.323 27.5227 44.899 26.2C45.4963 24.856 46.3817 23.768 47.555 22.936C48.7283 22.104 50.1577 21.688 51.843 21.688C53.5283 21.688 54.9577 22.104 56.131 22.936C57.3043 23.768 58.179 24.856 58.755 26.2C59.3523 27.5227 59.651 28.9307 59.651 30.424C59.651 31.9387 59.3523 33.368 58.755 34.712C58.179 36.0347 57.3043 37.112 56.131 37.944C54.9577 38.776 53.5283 39.192 51.843 39.192ZM51.843 37.24C52.9737 37.24 53.955 36.9413 54.787 36.344C55.6403 35.7253 56.291 34.904 56.739 33.88C57.2083 32.8347 57.443 31.6827 57.443 30.424C57.443 29.144 57.219 27.992 56.771 26.968C56.323 25.9227 55.6723 25.1013 54.819 24.504C53.9657 23.9067 52.9737 23.608 51.843 23.608C50.7123 23.608 49.7203 23.9067 48.867 24.504C48.0137 25.1013 47.363 25.9227 46.915 26.968C46.467 28.0133 46.243 29.1653 46.243 30.424C46.243 31.704 46.467 32.8667 46.915 33.912C47.363 34.936 48.003 35.7467 48.835 36.344C49.6883 36.9413 50.691 37.24 51.843 37.24ZM70.584 39.192C69.0907 39.192 67.8 38.808 66.712 38.04C65.624 37.272 64.792 36.2267 64.216 34.904C63.6613 33.5813 63.384 32.0987 63.384 30.456C63.384 28.792 63.6613 27.2987 64.216 25.976C64.792 24.632 65.624 23.576 66.712 22.808C67.8213 22.04 69.144 21.656 70.68 21.656C72.1947 21.656 73.4213 22.0293 74.36 22.776C75.32 23.5013 76.056 24.3867 76.568 25.432H76.792V15H79V39H76.792V35.352H76.568C76.0347 36.44 75.2773 37.3573 74.296 38.104C73.3147 38.8293 72.0773 39.192 70.584 39.192ZM71.192 37.24C72.9627 37.24 74.328 36.6 75.288 35.32C76.248 34.0187 76.728 32.3973 76.728 30.456C76.728 28.5147 76.248 26.8933 75.288 25.592C74.328 24.2907 72.9627 23.64 71.192 23.64C69.3787 23.64 68.0027 24.2907 67.064 25.592C66.1253 26.872 65.656 28.4827 65.656 30.424C65.656 32.3867 66.1253 34.0187 67.064 35.32C68.0027 36.6 69.3787 37.24 71.192 37.24ZM91.4518 39.192C89.7451 39.192 88.3051 38.776 87.1318 37.944C85.9584 37.112 85.0838 36.024 84.5078 34.68C83.9318 33.336 83.6438 31.9173 83.6438 30.424C83.6438 28.9307 83.9318 27.512 84.5078 26.168C85.0838 24.824 85.9584 23.736 87.1318 22.904C88.3051 22.072 89.7451 21.656 91.4518 21.656C93.6918 21.656 95.4838 22.4133 96.8278 23.928C98.1718 25.4427 98.8438 27.6293 98.8438 30.488V31.096H85.8518V31.32C85.8518 32.344 86.0758 33.3253 86.5238 34.264C86.9931 35.1813 87.6544 35.9173 88.5078 36.472C89.3611 37.0267 90.3318 37.304 91.4198 37.304C92.6144 37.304 93.6384 37.0053 94.4918 36.408C95.3451 35.7893 95.9851 34.9573 96.4118 33.912H98.5878C98.1184 35.4267 97.2864 36.6853 96.0918 37.688C94.8971 38.6907 93.3504 39.192 91.4518 39.192ZM96.6358 29.464C96.5504 27.352 96.0384 25.8267 95.0998 24.888C94.1611 23.9493 92.9451 23.48 91.4518 23.48C89.7878 23.48 88.4651 24.0347 87.4838 25.144C86.5238 26.2533 86.0011 27.6933 85.9158 29.464H96.6358ZM123.978 29.976H118.794V35.192H116.81V29.976H111.626V27.992H116.81V22.84H118.794V27.992H123.978V29.976ZM143.903 39.192C142.409 39.192 141.119 38.808 140.031 38.04C138.943 37.272 138.111 36.2267 137.535 34.904C136.98 33.5813 136.703 32.0987 136.703 30.456C136.703 28.792 136.98 27.2987 137.535 25.976C138.111 24.632 138.943 23.576 140.031 22.808C141.14 22.04 142.463 21.656 143.999 21.656C145.513 21.656 146.74 22.0293 147.679 22.776C148.639 23.5013 149.375 24.3867 149.887 25.432H150.111V15H152.319V39H150.111V35.352H149.887C149.353 36.44 148.596 37.3573 147.615 38.104C146.633 38.8293 145.396 39.192 143.903 39.192ZM144.511 37.24C146.281 37.24 147.647 36.6 148.607 35.32C149.567 34.0187 150.047 32.3973 150.047 30.456C150.047 28.5147 149.567 26.8933 148.607 25.592C147.647 24.2907 146.281 23.64 144.511 23.64C142.697 23.64 141.321 24.2907 140.383 25.592C139.444 26.872 138.975 28.4827 138.975 30.424C138.975 32.3867 139.444 34.0187 140.383 35.32C141.321 36.6 142.697 37.24 144.511 37.24ZM164.771 39.192C163.064 39.192 161.624 38.776 160.45 37.944C159.277 37.112 158.402 36.024 157.826 34.68C157.25 33.336 156.962 31.9173 156.962 30.424C156.962 28.9307 157.25 27.512 157.826 26.168C158.402 24.824 159.277 23.736 160.45 22.904C161.624 22.072 163.064 21.656 164.771 21.656C167.01 21.656 168.802 22.4133 170.146 23.928C171.491 25.4427 172.163 27.6293 172.163 30.488V31.096H159.17V31.32C159.17 32.344 159.394 33.3253 159.842 34.264C160.312 35.1813 160.973 35.9173 161.826 36.472C162.68 37.0267 163.65 37.304 164.738 37.304C165.933 37.304 166.957 37.0053 167.811 36.408C168.664 35.7893 169.304 34.9573 169.731 33.912H171.906C171.437 35.4267 170.605 36.6853 169.411 37.688C168.216 38.6907 166.669 39.192 164.771 39.192ZM169.955 29.464C169.869 27.352 169.357 25.8267 168.418 24.888C167.48 23.9493 166.264 23.48 164.771 23.48C163.106 23.48 161.784 24.0347 160.802 25.144C159.842 26.2533 159.32 27.6933 159.234 29.464H169.955ZM182.433 39.192C181.089 39.192 179.916 38.9253 178.913 38.392C177.932 37.8587 177.175 37.1653 176.641 36.312C176.129 35.4373 175.873 34.5307 175.873 33.592V33.464H178.113V33.592C178.113 34.1893 178.273 34.776 178.593 35.352C178.935 35.928 179.436 36.3973 180.097 36.76C180.759 37.1227 181.559 37.304 182.497 37.304C183.628 37.304 184.567 37.0373 185.313 36.504C186.06 35.9493 186.433 35.1813 186.433 34.2C186.433 33.3893 186.145 32.7493 185.569 32.28C185.015 31.8107 184.311 31.512 183.457 31.384L181.153 31.064C179.724 30.8507 178.551 30.3813 177.633 29.656C176.737 28.9093 176.289 27.864 176.289 26.52C176.289 25.0053 176.844 23.8213 177.953 22.968C179.063 22.0933 180.481 21.656 182.209 21.656C183.468 21.656 184.556 21.9013 185.473 22.392C186.391 22.8613 187.084 23.4907 187.553 24.28C188.044 25.0693 188.289 25.9227 188.289 26.84V26.936H186.049V26.872C186.049 26.4027 185.921 25.912 185.665 25.4C185.409 24.8667 184.983 24.408 184.385 24.024C183.809 23.64 183.063 23.448 182.145 23.448C181.015 23.448 180.097 23.736 179.393 24.312C178.711 24.888 178.369 25.624 178.369 26.52C178.369 27.224 178.615 27.8213 179.105 28.312C179.617 28.7813 180.268 29.0693 181.057 29.176L183.585 29.528C185.015 29.7627 186.209 30.2427 187.169 30.968C188.151 31.672 188.641 32.7387 188.641 34.168C188.641 35.1493 188.364 36.024 187.809 36.792C187.276 37.56 186.54 38.1573 185.601 38.584C184.663 38.9893 183.607 39.192 182.433 39.192ZM193.187 22.168H195.395V39H193.187V22.168ZM194.243 18.968C193.795 18.968 193.422 18.8187 193.123 18.52C192.825 18.2 192.675 17.816 192.675 17.368C192.675 16.9413 192.825 16.5787 193.123 16.28C193.422 15.96 193.795 15.8 194.243 15.8C194.691 15.8 195.065 15.96 195.363 16.28C195.662 16.5787 195.811 16.9413 195.811 17.368C195.811 17.816 195.662 18.2 195.363 18.52C195.065 18.8187 194.691 18.968 194.243 18.968ZM208.46 45.624C207.478 45.624 206.572 45.4747 205.74 45.176V43.288C205.996 43.3733 206.358 43.448 206.828 43.512C207.297 43.576 207.777 43.608 208.268 43.608C209.996 43.608 211.318 43.128 212.236 42.168C213.153 41.208 213.612 39.896 213.612 38.232V34.904H213.356C212.865 35.992 212.108 36.888 211.084 37.592C210.06 38.296 208.833 38.648 207.404 38.648C205.996 38.648 204.748 38.2853 203.66 37.56C202.572 36.8347 201.718 35.832 201.1 34.552C200.502 33.2507 200.204 31.7787 200.204 30.136C200.204 28.4933 200.492 27.032 201.068 25.752C201.665 24.4507 202.508 23.4373 203.596 22.712C204.684 21.9867 205.942 21.624 207.372 21.624C208.865 21.624 210.124 22.008 211.148 22.776C212.193 23.544 212.94 24.4827 213.388 25.592H213.612V22.2H215.82V38.232C215.82 39.448 215.564 40.6213 215.052 41.752C214.54 42.8827 213.729 43.8107 212.62 44.536C211.532 45.2613 210.145 45.624 208.46 45.624ZM208.044 36.696C209.217 36.696 210.22 36.3973 211.052 35.8C211.884 35.1813 212.502 34.3707 212.908 33.368C213.334 32.3653 213.548 31.2667 213.548 30.072C213.548 28.92 213.334 27.8533 212.908 26.872C212.502 25.8693 211.884 25.0693 211.052 24.472C210.241 23.8747 209.238 23.576 208.044 23.576C206.849 23.576 205.836 23.8747 205.004 24.472C204.193 25.0693 203.574 25.8693 203.148 26.872C202.742 27.8533 202.54 28.92 202.54 30.072C202.54 31.2667 202.742 32.3653 203.148 33.368C203.574 34.3707 204.193 35.1813 205.004 35.8C205.836 36.3973 206.849 36.696 208.044 36.696ZM221.386 22.168H223.626V25.336H223.85C224.298 24.312 225.013 23.448 225.994 22.744C226.997 22.0187 228.213 21.656 229.642 21.656C231.05 21.656 232.245 21.9867 233.226 22.648C234.208 23.3093 234.944 24.2053 235.434 25.336C235.925 26.4453 236.17 27.672 236.17 29.016V39H233.994V29.24C233.994 27.448 233.514 26.0827 232.554 25.144C231.594 24.2053 230.368 23.736 228.874 23.736C227.296 23.736 226.026 24.248 225.066 25.272C224.106 26.2747 223.626 27.5973 223.626 29.24V39H221.386V22.168Z" fill="black"/>
<rect x="194" y="81" width="82" height="32" rx="16" fill="#3A78FF"/>
<path d="M216.399 92.14H212.499V104H210.079V92.14H206.179V90H216.399V92.14ZM218.577 89.12H221.017V95.16H221.157C221.411 94.6133 221.811 94.1467 222.357 93.76C222.917 93.3733 223.597 93.18 224.397 93.18C225.757 93.18 226.737 93.62 227.337 94.5C227.937 95.38 228.237 96.4 228.237 97.56V104H225.817V97.94C225.817 97.0733 225.604 96.4067 225.177 95.94C224.764 95.46 224.177 95.22 223.417 95.22C222.697 95.22 222.117 95.4733 221.677 95.98C221.237 96.4733 221.017 97.1267 221.017 97.94V104H218.577V89.12ZM240.347 104H237.907V102.22H237.787C237.533 102.767 237.133 103.233 236.587 103.62C236.053 104.007 235.4 104.2 234.627 104.2C233.707 104.2 232.967 103.98 232.407 103.54C231.847 103.087 231.453 102.527 231.227 101.86C231 101.193 230.887 100.507 230.887 99.8V93.44H233.307V99.42C233.307 100.273 233.507 100.94 233.907 101.42C234.307 101.9 234.86 102.14 235.567 102.14C236.327 102.14 236.907 101.887 237.307 101.38C237.707 100.86 237.907 100.207 237.907 99.42V93.44H240.347V104ZM257.55 92.14H253.65V104H251.23V92.14H247.33V90H257.55V92.14ZM261.587 104.16C261.187 104.16 260.847 104.02 260.567 103.74C260.3 103.46 260.167 103.12 260.167 102.72C260.167 102.32 260.3 101.98 260.567 101.7C260.847 101.42 261.187 101.28 261.587 101.28C262 101.28 262.34 101.42 262.607 101.7C262.887 101.98 263.027 102.32 263.027 102.72C263.027 103.12 262.887 103.46 262.607 103.74C262.327 104.02 261.987 104.16 261.587 104.16Z" fill="white"/>
</svg>
