<svg width="152" height="173" viewBox="0 0 152 173" fill="none" xmlns="http://www.w3.org/2000/svg">
<rect x="59.4541" y="12.4065" width="80" height="80" rx="10" transform="rotate(-1.98905 59.4541 12.4065)" fill="#1E1E1E"/>
<path d="M110.198 33.742C108.873 33.788 107.62 34.3587 106.716 35.3283C105.811 36.298 105.329 37.5873 105.375 38.9126L106.069 58.9005C106.115 60.2258 106.686 61.4785 107.656 62.3831C108.625 63.2876 109.915 63.7699 111.24 63.7239C112.565 63.6778 113.818 63.1072 114.723 62.1375C115.627 61.1679 116.109 59.8786 116.063 58.5533C116.017 57.228 115.447 55.9753 114.477 55.0707C113.507 54.1662 112.218 53.6839 110.893 53.7299L90.9049 54.4244C89.5796 54.4705 88.3269 55.0411 87.4223 56.0108C86.5178 56.9805 86.0355 58.2697 86.0815 59.595C86.1276 60.9203 86.6982 62.173 87.6679 63.0776C88.6375 63.9821 89.9268 64.4644 91.2521 64.4184C92.5774 64.3723 93.8301 63.8017 94.7347 62.832C95.6392 61.8624 96.1215 60.5731 96.0755 59.2478L95.381 39.2598C95.3349 37.9346 94.7643 36.6818 93.7946 35.7773C92.8249 34.8727 91.5356 34.3904 90.2104 34.4365C88.8851 34.4825 87.6324 35.0532 86.7278 36.0228C85.8233 36.9925 85.341 38.2818 85.387 39.6071C85.4331 40.9324 86.0037 42.1851 86.9734 43.0896C87.943 43.9942 89.2323 44.4765 90.5576 44.4305L110.546 43.736C111.871 43.6899 113.124 43.1193 114.028 42.1496C114.933 41.1799 115.415 39.8906 115.369 38.5653C115.323 37.2401 114.752 35.9873 113.783 35.0828C112.813 34.1782 111.524 33.6959 110.198 33.742Z" stroke="#F5F5F5" stroke-width="3" stroke-linecap="round" stroke-linejoin="round"/>
<rect x="11.5101" y="84.999" width="77" height="77" rx="8.5" transform="rotate(-7.697 11.5101 84.999)" fill="white" stroke="#D9D9D9" stroke-width="3"/>
<path d="M47.5767 132.59L47.181 129.664L57.9037 108.786L44.5254 110.595L43.9927 106.655L63.1986 104.058L63.5943 106.985L52.8843 127.861L66.2499 126.054L66.7826 129.994L47.5767 132.59Z" fill="black"/>
</svg>
